<svg width="152" height="161" viewBox="0 0 152 161" fill="none" xmlns="http://www.w3.org/2000/svg">
<path d="M46.1826 70.506L74.6826 37.006H151.183V161.006H46.1826V70.506Z" fill="#1E2B3B"/>
<path d="M72.4066 97.43C72.4706 95.718 73.0306 94.398 74.0866 93.47C75.1426 92.542 76.5746 92.078 78.3826 92.078C79.5826 92.078 80.6066 92.286 81.4546 92.702C82.3186 93.118 82.9666 93.686 83.3986 94.406C83.8466 95.126 84.0706 95.934 84.0706 96.83C84.0706 97.886 83.8066 98.75 83.2786 99.422C82.7506 100.078 82.1346 100.526 81.4306 100.766V100.862C82.3426 101.166 83.0626 101.67 83.5906 102.374C84.1186 103.078 84.3826 103.982 84.3826 105.086C84.3826 106.078 84.1506 106.958 83.6866 107.726C83.2386 108.478 82.5746 109.07 81.6946 109.502C80.8306 109.934 79.7986 110.15 78.5986 110.15C76.6786 110.15 75.1426 109.678 73.9906 108.734C72.8546 107.79 72.2546 106.366 72.1906 104.462H76.1746C76.1906 105.166 76.3906 105.726 76.7746 106.142C77.1586 106.542 77.7186 106.742 78.4546 106.742C79.0786 106.742 79.5586 106.566 79.8946 106.214C80.2466 105.846 80.4226 105.366 80.4226 104.774C80.4226 104.006 80.1746 103.454 79.6786 103.118C79.1986 102.766 78.4226 102.59 77.3506 102.59H76.5826V99.254H77.3506C78.1666 99.254 78.8226 99.118 79.3186 98.846C79.8306 98.558 80.0866 98.054 80.0866 97.334C80.0866 96.758 79.9266 96.31 79.6066 95.99C79.2866 95.67 78.8466 95.51 78.2866 95.51C77.6786 95.51 77.2226 95.694 76.9186 96.062C76.6306 96.43 76.4626 96.886 76.4146 97.43H72.4066ZM86.7939 101.006C86.7939 98.254 87.3219 96.086 88.3779 94.502C89.4499 92.918 91.1699 92.126 93.5379 92.126C95.9059 92.126 97.6179 92.918 98.6739 94.502C99.7459 96.086 100.282 98.254 100.282 101.006C100.282 103.79 99.7459 105.974 98.6739 107.558C97.6179 109.142 95.9059 109.934 93.5379 109.934C91.1699 109.934 89.4499 109.142 88.3779 107.558C87.3219 105.974 86.7939 103.79 86.7939 101.006ZM96.2499 101.006C96.2499 99.39 96.0739 98.15 95.7219 97.286C95.3699 96.406 94.6419 95.966 93.5379 95.966C92.4339 95.966 91.7059 96.406 91.3539 97.286C91.0019 98.15 90.8259 99.39 90.8259 101.006C90.8259 102.094 90.8899 102.998 91.0179 103.718C91.1459 104.422 91.4019 104.998 91.7859 105.446C92.1859 105.878 92.7699 106.094 93.5379 106.094C94.3059 106.094 94.8819 105.878 95.2659 105.446C95.6659 104.998 95.9299 104.422 96.0579 103.718C96.1859 102.998 96.2499 102.094 96.2499 101.006ZM102.45 101.006C102.45 98.254 102.978 96.086 104.034 94.502C105.106 92.918 106.826 92.126 109.194 92.126C111.562 92.126 113.274 92.918 114.33 94.502C115.402 96.086 115.938 98.254 115.938 101.006C115.938 103.79 115.402 105.974 114.33 107.558C113.274 109.142 111.562 109.934 109.194 109.934C106.826 109.934 105.106 109.142 104.034 107.558C102.978 105.974 102.45 103.79 102.45 101.006ZM111.906 101.006C111.906 99.39 111.73 98.15 111.378 97.286C111.026 96.406 110.298 95.966 109.194 95.966C108.09 95.966 107.362 96.406 107.01 97.286C106.658 98.15 106.482 99.39 106.482 101.006C106.482 102.094 106.546 102.998 106.674 103.718C106.802 104.422 107.058 104.998 107.442 105.446C107.842 105.878 108.426 106.094 109.194 106.094C109.962 106.094 110.538 105.878 110.922 105.446C111.322 104.998 111.586 104.422 111.714 103.718C111.842 102.998 111.906 102.094 111.906 101.006ZM126.698 110.006L122.618 104.39V110.006H118.514V92.246H122.618V102.062L126.674 96.614H131.738L126.17 103.334L131.786 110.006H126.698Z" fill="white"/>
<path d="M53.4125 48.5847L65.2241 48.8641L55.2303 60.259L53.4125 48.5847Z" fill="#181619"/>
<mask id="path-4-inside-1_31_4287" fill="white">
<path d="M75.1602 36.7332C74.9069 29.373 72.2057 22.2848 67.441 16.4775C62.6764 10.6703 56.0911 6.43996 48.6226 4.38862C41.1541 2.33728 33.1829 2.5695 25.8437 5.05222C18.5044 7.53495 12.1712 12.1417 7.74528 18.2166C3.31941 24.2916 1.02649 31.5253 1.1929 38.888C1.35931 46.2507 3.97657 53.3673 8.67215 59.2248C13.3677 65.0823 19.9023 69.3821 27.3458 71.5124C34.7893 73.6426 42.7624 73.4946 50.1302 71.0895L47.8876 64.8799C41.9027 66.8336 35.4261 66.9538 29.3797 65.2234C23.3333 63.493 18.0252 60.0002 14.211 55.2421C10.3968 50.4841 8.27074 44.7032 8.13556 38.7225C8.00038 32.7417 9.86293 26.8657 13.4581 21.931C17.0533 16.9962 22.1978 13.2542 28.1595 11.2375C34.1213 9.22072 40.5963 9.03209 46.663 10.6984C52.7297 12.3647 58.0789 15.8011 61.9493 20.5183C65.8196 25.2356 68.0139 30.9933 68.2197 36.9721L75.1602 36.7332Z"/>
</mask>
<path d="M75.1602 36.7332C74.9069 29.373 72.2057 22.2848 67.441 16.4775C62.6764 10.6703 56.0911 6.43996 48.6226 4.38862C41.1541 2.33728 33.1829 2.5695 25.8437 5.05222C18.5044 7.53495 12.1712 12.1417 7.74528 18.2166C3.31941 24.2916 1.02649 31.5253 1.1929 38.888C1.35931 46.2507 3.97657 53.3673 8.67215 59.2248C13.3677 65.0823 19.9023 69.3821 27.3458 71.5124C34.7893 73.6426 42.7624 73.4946 50.1302 71.0895L47.8876 64.8799C41.9027 66.8336 35.4261 66.9538 29.3797 65.2234C23.3333 63.493 18.0252 60.0002 14.211 55.2421C10.3968 50.4841 8.27074 44.7032 8.13556 38.7225C8.00038 32.7417 9.86293 26.8657 13.4581 21.931C17.0533 16.9962 22.1978 13.2542 28.1595 11.2375C34.1213 9.22072 40.5963 9.03209 46.663 10.6984C52.7297 12.3647 58.0789 15.8011 61.9493 20.5183C65.8196 25.2356 68.0139 30.9933 68.2197 36.9721L75.1602 36.7332Z" stroke="#1C89F4" stroke-width="20" mask="url(#path-4-inside-1_31_4287)"/>
<mask id="path-5-inside-2_31_4287" fill="white">
<path d="M75.265 37.5122C75.1155 45.2512 72.4984 52.7379 67.7992 58.8695C63.1 65.0011 56.5672 69.4535 49.163 71.5709L47.3917 65.3031C53.4606 63.5676 58.8152 59.9182 62.6669 54.8925C66.5185 49.8667 68.6636 43.7303 68.7862 37.387L75.265 37.5122Z"/>
</mask>
<path d="M75.265 37.5122C75.1155 45.2512 72.4984 52.7379 67.7992 58.8695C63.1 65.0011 56.5672 69.4535 49.163 71.5709L47.3917 65.3031C53.4606 63.5676 58.8152 59.9182 62.6669 54.8925C66.5185 49.8667 68.6636 43.7303 68.7862 37.387L75.265 37.5122Z" stroke="white" stroke-width="20" mask="url(#path-5-inside-2_31_4287)"/>
</svg>
