<svg width="1440" height="1145" viewBox="0 0 1440 1145" fill="none" xmlns="http://www.w3.org/2000/svg">
<path d="M816.323 952.579C686.71 860.222 569.853 655.193 691.251 540.726C803.807 434.596 863.287 553.082 993.878 485.742C1124.47 418.403 1058.83 221.358 1208.02 174.077C1294.61 146.634 1400.67 192.056 1457.18 294.962C1513.69 397.869 1520.64 558.261 1409.02 760.758C1303.58 952.04 1174.23 1013.41 1061.83 1020.25C949.426 1027.09 853.972 979.407 816.323 952.579Z" stroke="#D0D0D0" stroke-opacity="0.4" stroke-width="2.10293" stroke-miterlimit="10"/>
<path d="M1393.41 760.687C1297.01 936.287 1178.49 993.41 1075.06 1000.26C972.299 1006.9 884.707 963.86 849.208 939.13C728.655 854.582 619.689 665.525 728.335 557.492C828.653 457.739 883.765 561.584 1003.46 498.752C1006.86 496.952 1010.13 495.061 1013.26 493.085C1098.13 439.586 1086.52 322.688 1143.38 255.45C1158.81 237.197 1179.21 222.509 1207.83 213.813C1290.14 188.801 1388.05 231.661 1439.69 327.146C1491.48 423.158 1496.46 572.572 1393.41 760.687Z" stroke="#D0D0D0" stroke-opacity="0.4" stroke-width="2.10293" stroke-miterlimit="10"/>
<path d="M1377.96 760.497C1290.55 920.398 1182.83 973.285 1088.35 980.153C995.213 986.607 915.398 948.35 882.123 925.619C770.364 849.276 669.554 675.918 765.493 574.286C853.609 480.942 904.559 570.455 1013.18 511.752C1016.31 510.061 1019.31 508.268 1022.2 506.412C1100.26 456.356 1093.45 350.846 1147.54 290.785C1162.32 274.385 1181.46 261.194 1207.86 253.562C1285.92 230.987 1375.68 271.246 1422.45 359.283C1469.51 448.375 1472.49 586.78 1377.96 760.497Z" stroke="#D0D0D0" stroke-opacity="0.4" stroke-width="2.10293" stroke-miterlimit="10"/>
<path d="M1362.5 760.308C1284.09 904.511 1187.19 953.395 1101.64 960.051C1018.15 966.546 946.133 932.781 915.036 912.109C812.23 843.765 719.415 686.354 802.651 591.082C878.566 504.187 925.235 579.113 1022.9 524.754C1025.75 523.164 1028.49 521.476 1031.13 519.74C1102.39 473.126 1100.41 379.008 1151.71 326.121C1165.82 311.574 1183.72 299.893 1207.89 293.311C1281.72 273.197 1363.3 310.83 1405.21 391.42C1447.54 473.592 1448.52 600.99 1362.5 760.308Z" stroke="#D0D0D0" stroke-opacity="0.4" stroke-width="2.10293" stroke-miterlimit="10"/>
<path d="M1347.05 760.118C1277.91 888.766 1191.54 933.337 1114.93 939.947C1041.07 946.319 976.873 917.207 947.949 898.598C854.118 838.23 769.277 696.848 839.806 607.876C903.532 527.487 945.9 587.742 1032.61 537.755C1035.2 536.266 1037.67 534.683 1040.07 533.067C1104.52 489.895 1107.39 407.176 1155.88 361.456C1169.34 348.763 1185.99 338.609 1207.91 333.06C1277.54 315.436 1351.12 350.325 1387.96 423.557C1425.77 498.716 1424.86 615.36 1347.05 760.118Z" stroke="#D0D0D0" stroke-opacity="0.4" stroke-width="2.10293" stroke-miterlimit="10"/>
<path d="M1331.6 759.93C1271.5 872.9 1195.89 913.273 1128.22 919.844C1063.99 926.082 1007.62 901.626 980.863 885.088C896.038 832.663 819.156 707.422 876.964 624.671C928.525 550.862 966.555 596.335 1042.33 550.755C1044.64 549.367 1046.85 547.89 1049 546.395C1106.65 506.665 1114.42 435.358 1160.05 396.792C1172.87 385.956 1188.27 377.346 1207.95 372.809C1273.39 357.719 1338.78 389.898 1370.72 455.694C1403.84 523.921 1400.95 629.598 1331.6 759.93Z" stroke="#D0D0D0" stroke-opacity="0.4" stroke-width="2.10293" stroke-miterlimit="10"/>
<path d="M1316.15 759.74C1265.06 857.023 1200.24 893.193 1141.51 899.74C1086.91 905.827 1038.38 886.033 1013.78 871.577C937.993 827.052 869.082 718.106 914.122 641.466C953.573 574.338 987.188 604.881 1052.05 563.757C1054.08 562.468 1056.03 561.098 1057.94 559.723C1108.78 523.435 1121.5 463.568 1164.22 432.127C1176.41 423.154 1190.55 416.108 1207.98 412.558C1269.27 400.064 1326.43 429.48 1353.48 487.832C1381.89 549.132 1377.02 643.827 1316.15 759.74Z" stroke="#D0D0D0" stroke-opacity="0.4" stroke-width="2.10293" stroke-miterlimit="10"/>
<path d="M1300.7 759.551C1258.61 841.134 1204.6 873.092 1154.8 879.638C1109.84 885.548 1069.15 870.423 1046.69 858.067C979.995 821.379 915.238 727.095 951.279 658.261C982.041 599.51 1007.79 613.36 1061.77 576.758C1063.52 575.566 1065.21 574.305 1066.88 573.05C1110.91 540.204 1128.63 491.825 1168.39 467.463C1179.97 460.365 1192.85 454.904 1208.01 452.306C1265.18 442.505 1314.06 469.071 1336.24 519.969C1359.93 574.354 1353.07 658.044 1300.7 759.551Z" stroke="#D0D0D0" stroke-opacity="0.4" stroke-width="2.10293" stroke-miterlimit="10"/>
<path d="M1285.25 759.362C1252.11 825.224 1208.95 852.95 1168.09 859.535C1132.76 865.229 1099.94 854.785 1079.6 844.557C1022.05 815.617 969.394 739.916 988.436 675.056C1004.1 621.688 1028.33 621.748 1071.48 589.759C1072.96 588.662 1074.39 587.512 1075.81 586.377C1113.04 556.974 1135.83 520.167 1172.55 502.798C1183.54 497.601 1195.16 493.743 1208.03 492.056C1261.12 485.101 1301.66 508.674 1318.99 552.106C1337.94 599.588 1329.08 672.238 1285.25 759.362Z" stroke="#D0D0D0" stroke-opacity="0.4" stroke-width="2.10293" stroke-miterlimit="10"/>
<path d="M1269.8 759.172C1245.56 809.284 1213.28 832.727 1181.38 839.432C1155.66 844.836 1130.76 839.095 1112.52 831.047C1064.17 809.717 1020.15 750.976 1025.59 691.851C1029.86 645.492 1048.76 630.008 1081.2 602.76C1082.4 601.754 1083.57 600.72 1084.75 599.705C1115.16 573.744 1143.07 548.65 1176.72 538.134C1187.13 534.881 1197.47 532.636 1208.06 531.804C1257.08 527.957 1289.22 548.292 1301.75 584.243C1315.9 624.84 1305.01 686.392 1269.8 759.172Z" stroke="#D0D0D0" stroke-opacity="0.4" stroke-width="2.10293" stroke-miterlimit="10"/>
<path d="M1062.75 708.646C1055.85 667.413 1070.08 635.552 1093.69 613.033C1117.29 590.514 1150.28 577.337 1180.89 573.47C1243.69 565.537 1275.25 582.651 1284.51 616.381C1293.77 650.11 1280.73 700.455 1254.35 758.983C1227.97 817.511 1184.52 831.477 1145.43 817.536C1106.35 803.596 1071.64 761.748 1062.75 708.646Z" stroke="#D0D0D0" stroke-opacity="0.4" stroke-width="2.10293" stroke-miterlimit="10"/>
<g opacity="0.1">
<path d="M416.465 638.868C347.837 491.168 312.138 435.061 200.016 437.409C160.073 438.222 169.645 408.453 139.184 419.74C108.783 431.028 134.879 447.553 103.756 473.108C16.4057 544.836 24.4424 611.176 64.957 769.292C82.0237 835.903 23.8103 839.154 46.8368 903.688C63.6627 950.765 187.675 970.48 318.489 921.959C449.334 873.408 531.778 777.058 514.952 729.981C491.925 665.417 445.391 701.055 416.465 638.868ZM304.312 882.167C187.464 925.511 91.445 900.046 87.3815 888.699C80.3983 869.134 125.097 803.937 258.681 754.362C392.264 704.787 466.822 723.179 474.618 745.001C479.223 757.914 421.19 838.793 304.312 882.167ZM266.747 776.997C205.674 799.663 163.233 825.579 135.722 848.906C155.076 866.485 191.317 870.759 227.407 857.364C273.369 840.358 301.633 801.198 290.466 769.954L289.985 768.87C282.429 771.339 274.694 774.017 266.747 776.997Z" fill="#F2F2F2"/>
</g>
<g opacity="0.1" filter="url(#filter0_d_323_1537)">
<path d="M660.857 521.826C632.243 460.243 617.359 436.85 570.61 437.829C553.957 438.167 557.947 425.755 545.247 430.462C532.571 435.168 543.452 442.058 530.476 452.713C494.055 482.619 497.406 510.28 514.299 576.205C521.414 603.978 497.143 605.333 506.743 632.241C513.759 651.869 565.465 660.089 620.007 639.858C674.562 619.615 708.936 579.443 701.921 559.815C692.32 532.895 672.918 547.754 660.857 521.826ZM614.096 623.267C565.377 641.339 525.343 630.722 523.648 625.991C520.737 617.833 539.373 590.65 595.07 569.98C650.767 549.31 681.854 556.978 685.104 566.077C687.024 571.461 662.828 605.183 614.096 623.267ZM598.434 579.418C572.97 588.868 555.274 599.673 543.804 609.4C551.873 616.729 566.983 618.511 582.031 612.926C601.195 605.835 612.979 589.508 608.323 576.481L608.122 576.029C604.972 577.058 601.747 578.175 598.434 579.418Z" fill="#F2F2F2"/>
</g>
<defs>
<filter id="filter0_d_323_1537" x="473" y="415" width="259" height="259" filterUnits="userSpaceOnUse" color-interpolation-filters="sRGB">
<feFlood flood-opacity="0" result="BackgroundImageFix"/>
<feColorMatrix in="SourceAlpha" type="matrix" values="0 0 0 0 0 0 0 0 0 0 0 0 0 0 0 0 0 0 127 0" result="hardAlpha"/>
<feOffset dy="4"/>
<feGaussianBlur stdDeviation="2"/>
<feComposite in2="hardAlpha" operator="out"/>
<feColorMatrix type="matrix" values="0 0 0 0 0 0 0 0 0 0 0 0 0 0 0 0 0 0 0.25 0"/>
<feBlend mode="normal" in2="BackgroundImageFix" result="effect1_dropShadow_323_1537"/>
<feBlend mode="normal" in="SourceGraphic" in2="effect1_dropShadow_323_1537" result="shape"/>
</filter>
</defs>
</svg>
