<svg width="268" height="180" viewBox="0 0 268 180" fill="none" xmlns="http://www.w3.org/2000/svg">
<path d="M-12.4531 10C-12.4531 4.47715 -7.97597 0 -2.45312 0H47.5469C53.0697 0 57.5469 4.47715 57.5469 10V60H-2.45313C-7.97597 60 -12.4531 55.5228 -12.4531 50V10Z" fill="#EFEFEF"/>
<path d="M57.5469 60H117.547C123.07 60 127.547 64.4772 127.547 70V120H57.5469V60Z" fill="#EFEFEF"/>
<path d="M197.547 70C197.547 64.4772 202.024 60 207.547 60H257.547C263.07 60 267.547 64.4772 267.547 70V110C267.547 115.523 263.07 120 257.547 120H197.547V70Z" fill="#EFEFEF"/>
<path d="M-12.4531 130C-12.4531 124.477 -7.97597 120 -2.45312 120H57.5469V170C57.5469 175.523 53.0697 180 47.5469 180H-2.45313C-7.97597 180 -12.4531 175.523 -12.4531 170V130Z" fill="#EFEFEF"/>
<path d="M127.547 120H197.547V170C197.547 175.523 193.07 180 187.547 180H137.547C132.024 180 127.547 175.523 127.547 170V120Z" fill="#EFEFEF"/>
</svg>
