<svg width="54" height="43" viewBox="0 0 54 43" fill="none" xmlns="http://www.w3.org/2000/svg">
<g clip-path="url(#clip0_31_4139)">
<path d="M28.0302 18.7889L25.5658 21.0485C22.2307 24.1072 18.4355 22.0275 17.2116 20.6959C15.0018 18.2792 15.1743 14.5391 17.573 12.3362L24.2925 6.17944H23.7504C19.0023 6.17944 14.435 8.06593 11.0753 11.4238L3.17285 11.4484C1.72709 11.4484 0.544189 12.6313 0.544189 14.0772V27.2127C0.544189 28.6586 1.72709 29.8464 3.09892 29.8464L12.4882 29.8414L19.9224 36.567C22.1814 38.4058 25.4877 38.0556 27.3155 35.8062L28.804 37.0598C30.1084 38.0544 32.0389 37.9229 33.1068 36.6184L35.6845 33.4455L36.1259 33.8153C37.2555 34.7195 38.909 34.5552 39.8225 33.425L40.6091 32.4526C41.5193 31.3264 41.3467 29.6783 40.223 28.7651L28.0302 18.7889ZM50.4888 11.4484L42.6028 11.4381C39.2365 8.07121 34.6708 6.18719 29.9113 6.18719L29.2048 6.17944C28.5477 6.17944 27.9217 6.44224 27.4289 6.88373L19.3556 14.2597C19.3474 14.2761 19.3391 14.2925 19.3391 14.2925C17.9591 15.5913 17.9919 17.6299 19.1584 18.8957C19.9491 19.7588 22.0335 20.6729 23.7693 19.1218C23.7693 19.1115 23.7898 19.1115 23.8001 19.1012L30.3717 13.0924C30.9057 12.6098 31.737 12.6407 32.2299 13.1746C32.7227 13.7086 32.6817 14.5408 32.1477 15.034L30.0021 16.9961L41.9625 26.7039C42.9581 27.5252 43.5643 28.6347 43.7796 29.8258L50.4888 29.8283C51.9346 29.8283 53.1175 28.6462 53.1175 27.1995V14.0788C53.1175 12.6239 51.9428 11.4484 50.4888 11.4484Z" fill="#007AFF"/>
</g>
<defs>
<clipPath id="clip0_31_4139">
<rect width="52.5733" height="42.0862" fill="white" transform="translate(0.544189 0.918701)"/>
</clipPath>
</defs>
</svg>
