<svg width="484" height="361" viewBox="0 0 484 361" fill="none" xmlns="http://www.w3.org/2000/svg">
<path d="M483.333 316.916H0V317.158H483.333V316.916Z" fill="#E0E0E0"/>
<path d="M365.07 327.153H331.816V327.394H365.07V327.153Z" fill="#E0E0E0"/>
<path d="M107.34 327.269H88.625V327.51H107.34V327.269Z" fill="#E0E0E0"/>
<path d="M242.635 326.708H204.703V326.95H242.635V326.708Z" fill="#E0E0E0"/>
<path d="M203.733 323.267H186.777V323.509H203.733V323.267Z" fill="#E0E0E0"/>
<path d="M410.407 323.393H359.184V323.634H410.407V323.393Z" fill="#E0E0E0"/>
<path d="M229.101 273.803H42.4475C40.9853 273.8 39.5838 273.217 38.5508 272.183C37.5177 271.148 36.9375 269.745 36.9375 268.283V5.90101C36.9502 4.44717 37.5361 3.05706 38.5677 2.03263C39.5994 1.0082 40.9936 0.432178 42.4475 0.429688H229.101C230.565 0.429688 231.969 1.01122 233.004 2.04636C234.039 3.0815 234.621 4.48544 234.621 5.94935V268.283C234.621 269.747 234.039 271.151 233.004 272.186C231.969 273.221 230.565 273.803 229.101 273.803ZM42.4475 0.623021C41.0494 0.625582 39.7094 1.18278 38.7216 2.17232C37.7339 3.16186 37.1792 4.50288 37.1792 5.90101V268.283C37.1792 269.681 37.7339 271.022 38.7216 272.012C39.7094 273.001 41.0494 273.558 42.4475 273.561H229.101C230.5 273.558 231.841 273.002 232.83 272.012C233.819 271.023 234.376 269.682 234.379 268.283V5.90101C234.376 4.50199 233.819 3.16099 232.83 2.17173C231.841 1.18247 230.5 0.625577 229.101 0.623021H42.4475Z" fill="#E0E0E0"/>
<path d="M438.198 273.803H251.535C250.072 273.8 248.67 273.218 247.635 272.183C246.601 271.149 246.018 269.746 246.016 268.283V5.90101C246.031 4.44629 246.619 3.05619 247.652 2.03203C248.685 1.00786 250.08 0.432151 251.535 0.429688H438.198C439.651 0.434719 441.042 1.01186 442.072 2.03602C443.102 3.06018 443.686 4.44884 443.699 5.90101V268.283C443.699 269.744 443.12 271.145 442.089 272.179C441.058 273.214 439.659 273.798 438.198 273.803ZM251.535 0.623021C250.136 0.625577 248.795 1.18247 247.806 2.17173C246.817 3.16099 246.26 4.50199 246.257 5.90101V268.283C246.26 269.682 246.817 271.023 247.806 272.012C248.795 273.002 250.136 273.558 251.535 273.561H438.198C439.597 273.558 440.938 273.002 441.928 272.012C442.917 271.023 443.474 269.682 443.476 268.283V5.90101C443.474 4.50199 442.917 3.16099 441.928 2.17173C440.938 1.18247 439.597 0.625577 438.198 0.623021H251.535Z" fill="#E0E0E0"/>
<path d="M424.668 195.918C412.778 177.813 423.633 158.354 421.826 138.209C420.018 118.063 400.878 113.675 404.503 96.6419C408.698 76.8446 397.514 57.8496 384.841 57.8496C372.168 57.8496 360.993 76.7963 365.189 96.6129C368.814 113.675 349.722 118.073 347.866 138.18C346.01 158.286 356.914 177.813 345.014 195.889C333.115 213.966 336.247 237.968 342.946 249.868C344.728 253.025 346.876 255.962 349.345 258.616C353.885 263.49 359.38 267.377 365.488 270.035C371.596 272.692 378.185 274.064 384.846 274.064C391.507 274.064 398.096 272.692 404.204 270.035C410.312 267.377 415.807 263.49 420.347 258.616C422.81 255.959 424.954 253.023 426.736 249.868C433.445 237.997 436.567 214.063 424.668 195.918Z" fill="#C8E2DB"/>
<path d="M384.841 209.655C385.63 209.655 386.412 209.81 387.142 210.112C387.871 210.415 388.534 210.858 389.092 211.416C389.651 211.974 390.094 212.637 390.396 213.367C390.698 214.096 390.853 214.878 390.853 215.667V316.916H378.828V215.667C378.828 214.878 378.984 214.096 379.286 213.367C379.588 212.637 380.031 211.974 380.589 211.416C381.148 210.858 381.81 210.415 382.54 210.112C383.269 209.81 384.051 209.655 384.841 209.655Z" fill="#F0F0F0"/>
<path d="M309.245 316.916H292.898V215.677C292.904 213.507 293.768 211.428 295.302 209.893C296.837 208.359 298.916 207.495 301.086 207.49C303.256 207.495 305.336 208.359 306.87 209.893C308.404 211.428 309.269 213.507 309.274 215.677L309.245 316.916Z" fill="#E0E0E0"/>
<path d="M301.06 289.608C328.912 289.608 351.491 267.029 351.491 239.177C351.491 211.325 328.912 188.746 301.06 188.746C273.208 188.746 250.629 211.325 250.629 239.177C250.629 267.029 273.208 289.608 301.06 289.608Z" fill="#BDE6FF"/>
<path d="M360.317 224.044C362.964 213.391 356.473 202.61 345.82 199.964C335.168 197.318 324.387 203.808 321.74 214.461C319.094 225.114 325.585 235.895 336.238 238.541C346.89 241.187 357.671 234.696 360.317 224.044Z" fill="#F0F0F0"/>
<path d="M271.875 209.374C272.92 202.961 268.568 196.916 262.155 195.871C255.742 194.827 249.697 199.179 248.653 205.592C247.608 212.005 251.96 218.05 258.373 219.094C264.786 220.139 270.831 215.787 271.875 209.374Z" fill="#F0F0F0"/>
<path d="M273.064 209.655C277.623 209.655 281.319 205.959 281.319 201.399C281.319 196.84 277.623 193.144 273.064 193.144C268.505 193.144 264.809 196.84 264.809 201.399C264.809 205.959 268.505 209.655 273.064 209.655Z" fill="#F0F0F0"/>
<path d="M197.199 256.49C189.357 257.658 181.863 260.517 175.236 264.871C175.178 257.215 173.777 249.955 170.181 244.087C164.709 249.414 160.272 256.316 156.647 263.74C155.323 249.829 151.659 236.296 143.549 227.722C131.398 235.368 125.134 248.109 122.157 261.603C117.238 252.504 110.099 244.796 101.402 239.196C93.9688 247.026 91.5908 257.853 91.7938 268.95C83.3451 259.109 73.9685 251.434 64.8238 250.535C62.5715 266.089 67.3661 280.763 73.4658 292.363C77.4259 299.805 83.342 306.026 90.5765 310.354C97.811 314.683 106.09 316.955 114.52 316.926H154.24C171.167 316.926 187.039 307.897 194.976 292.943C199.993 283.469 202.39 271.28 197.199 256.49Z" fill="#FFC5C6"/>
<path d="M185.852 55.665C190.753 41.2907 186.819 31.0537 174.861 31.0537C167.341 31.0537 158.012 35.0847 148.926 41.6387C147.901 37.8977 145.011 35.6647 140.361 35.6647C132.173 35.6647 120.892 42.586 112.047 52.3494C109.557 49.9834 106.26 48.6529 102.825 48.6277C94.9857 48.183 85.5027 52.1657 77.257 58.6327C76.8439 58.0544 76.2984 57.5833 75.6661 57.2588C75.0338 56.9342 74.3331 56.7656 73.6224 56.767C69.1081 56.5157 62.9891 60.537 59.9634 65.7377C59.7797 66.0567 59.6154 66.3757 59.4414 66.7043H188.23C188.617 62.161 187.815 58.3717 185.852 55.665Z" fill="#F0F0F0"/>
<path d="M186.247 142.945C188.644 135.927 186.74 130.93 180.882 130.93C177.199 130.93 172.646 132.863 168.209 136.101C167.97 135.199 167.418 134.412 166.65 133.88C165.883 133.349 164.952 133.108 164.023 133.201C160.031 133.201 154.521 136.585 150.19 141.36C148.977 140.2 147.365 139.55 145.686 139.543C141.819 139.32 137.227 141.263 133.196 144.424C133.001 144.145 132.743 143.915 132.442 143.754C132.141 143.593 131.807 143.505 131.466 143.496C129.262 143.371 126.275 145.333 124.796 147.875L124.535 148.339H187.446C187.709 146.456 187.283 144.54 186.247 142.945Z" fill="#F0F0F0"/>
<path d="M331.343 89.8369C330.847 89.7671 330.346 89.7316 329.845 89.7305C330.309 82.7222 327.631 78.2369 321.899 78.2369C317.771 78.2369 312.696 80.5762 307.534 84.5299C309.013 70.9192 304.276 62.0742 293.546 62.0742C284.904 62.0742 273.952 67.8742 263.135 77.2122C262.168 71.8762 258.998 68.6669 253.643 68.6669C244.237 68.6669 230.868 78.5655 220.148 92.5242C218.926 90.9146 217.359 89.599 215.563 88.674C213.766 87.749 211.785 87.238 209.766 87.1785C200.814 86.5502 189.688 92.2342 179.799 101.495C179.439 100.714 178.866 100.05 178.147 99.5801C177.427 99.1099 176.589 98.8522 175.729 98.8365C170.828 98.4885 164.129 103.602 160.156 110.437H339.221C343.426 100.074 340.082 91.0065 331.343 89.8369Z" fill="#F0F0F0"/>
<path d="M241.665 360.57C345.178 360.57 429.092 355.671 429.092 349.628C429.092 343.584 345.178 338.685 241.665 338.685C138.152 338.685 54.2383 343.584 54.2383 349.628C54.2383 355.671 138.152 360.57 241.665 360.57Z" fill="#F5F5F5"/>
<path d="M47.2305 92.8042L267.601 124.53L297.172 154.371L47.2305 92.8042Z" fill="#FFAF2E"/>
<path opacity="0.6" d="M47.2305 92.8042L267.601 124.53L297.172 154.371L47.2305 92.8042Z" fill="white"/>
<path d="M47.2305 92.8042L267.601 124.53L257.374 167.682L47.2305 92.8042Z" fill="#FFAF2E"/>
<path opacity="0.2" d="M47.2305 92.8042L267.601 124.53L257.374 167.682L47.2305 92.8042Z" fill="#26272B"/>
<path d="M252.848 42.8465L265.637 102.78C265.97 104.345 265.668 105.978 264.798 107.321C263.928 108.664 262.561 109.607 260.997 109.943L146.853 134.303C145.288 134.633 143.657 134.33 142.314 133.461C140.972 132.591 140.029 131.226 139.69 129.663L126.892 69.7295C126.562 68.1633 126.866 66.5303 127.737 65.1879C128.609 63.8454 129.977 62.9029 131.541 62.5665L245.685 38.2065C247.251 37.8768 248.884 38.1809 250.227 39.0523C251.569 39.9237 252.512 41.2914 252.848 42.8562V42.8465Z" fill="#FFAF2E"/>
<path opacity="0.4" d="M252.848 42.8465L265.637 102.78C265.97 104.345 265.668 105.978 264.798 107.321C263.928 108.664 262.561 109.607 260.997 109.943L146.853 134.303C145.288 134.633 143.657 134.33 142.314 133.461C140.972 132.591 140.029 131.226 139.69 129.663L126.892 69.7295C126.562 68.1633 126.866 66.5303 127.737 65.1879C128.609 63.8454 129.977 62.9029 131.541 62.5665L245.685 38.2065C247.251 37.8768 248.884 38.1809 250.227 39.0523C251.569 39.9237 252.512 41.2914 252.848 42.8562V42.8465Z" fill="#26272B"/>
<path d="M250.036 38.9224L211.901 85.738C208.365 90.0784 203.452 93.0815 197.977 94.2505C192.501 95.4194 186.79 94.6841 181.79 92.1663L127.859 65.003C128.732 63.7497 130.049 62.8753 131.542 62.5573L245.686 38.1974C247.176 37.8804 248.73 38.1394 250.036 38.9224Z" fill="#FFAF2E"/>
<path d="M47.2305 92.8042L228.993 136.004L257.374 167.682L47.2305 92.8042Z" fill="#FFAF2E"/>
<path opacity="0.6" d="M47.2305 92.8042L228.993 136.004L257.374 167.682L47.2305 92.8042Z" fill="white"/>
<path d="M113.532 134.444L113.043 135.278L133.27 147.126L133.759 146.292L113.532 134.444Z" fill="#FFAF2E"/>
<path d="M142.692 151.515L142.203 152.349L149.477 156.61L149.965 155.775L142.692 151.515Z" fill="#FFAF2E"/>
<path d="M47.2305 92.8042L228.993 136.004L193.661 178.586L47.2305 92.8042Z" fill="#FFAF2E"/>
<path d="M290.346 194.014C290.101 194.015 289.858 193.969 289.631 193.879L260.031 182.163C259.558 181.972 259.179 181.602 258.977 181.132C258.776 180.663 258.768 180.134 258.956 179.659C259.143 179.184 259.511 178.803 259.979 178.598C260.447 178.393 260.976 178.382 261.452 178.567L291.061 190.283C291.48 190.448 291.828 190.755 292.045 191.15C292.262 191.544 292.334 192.002 292.249 192.445C292.165 192.887 291.928 193.286 291.58 193.572C291.233 193.859 290.796 194.015 290.346 194.014Z" fill="#FFAF2E"/>
<path opacity="0.3" d="M290.346 194.014C290.101 194.015 289.858 193.969 289.631 193.879L260.031 182.163C259.558 181.972 259.179 181.602 258.977 181.132C258.776 180.663 258.768 180.134 258.956 179.659C259.143 179.184 259.511 178.803 259.979 178.598C260.447 178.393 260.976 178.382 261.452 178.567L291.061 190.283C291.48 190.448 291.828 190.755 292.045 191.15C292.262 191.544 292.334 192.002 292.249 192.445C292.165 192.887 291.928 193.286 291.58 193.572C291.233 193.859 290.796 194.015 290.346 194.014Z" fill="#26272B"/>
<path d="M288.596 177.039C288.353 177.038 288.114 176.989 287.89 176.894L271.989 170.563C271.751 170.471 271.534 170.332 271.35 170.156C271.166 169.98 271.018 169.768 270.916 169.535C270.814 169.301 270.759 169.05 270.754 168.795C270.75 168.54 270.796 168.287 270.889 168.049C270.983 167.812 271.123 167.596 271.3 167.413C271.478 167.23 271.69 167.084 271.924 166.984C272.158 166.883 272.41 166.83 272.665 166.827C272.92 166.824 273.173 166.871 273.41 166.967L289.311 173.269C289.788 173.457 290.17 173.826 290.375 174.295C290.58 174.765 290.59 175.296 290.404 175.773C290.268 176.143 290.021 176.463 289.698 176.689C289.375 176.916 288.99 177.038 288.596 177.039Z" fill="#FFAF2E"/>
<path opacity="0.5" d="M288.596 177.039C288.353 177.038 288.114 176.989 287.89 176.894L271.989 170.563C271.751 170.471 271.534 170.332 271.35 170.156C271.166 169.98 271.018 169.768 270.916 169.535C270.814 169.301 270.759 169.05 270.754 168.795C270.75 168.54 270.796 168.287 270.889 168.049C270.983 167.812 271.123 167.596 271.3 167.413C271.478 167.23 271.69 167.084 271.924 166.984C272.158 166.883 272.41 166.83 272.665 166.827C272.92 166.824 273.173 166.871 273.41 166.967L289.311 173.269C289.788 173.457 290.17 173.826 290.375 174.295C290.58 174.765 290.59 175.296 290.404 175.773C290.268 176.143 290.021 176.463 289.698 176.689C289.375 176.916 288.99 177.038 288.596 177.039Z" fill="white"/>
<path d="M255.354 193.763C255.112 193.76 254.873 193.714 254.648 193.627L225.774 182.163C225.536 182.071 225.319 181.932 225.135 181.756C224.951 181.58 224.803 181.369 224.701 181.135C224.599 180.901 224.544 180.65 224.539 180.395C224.535 180.14 224.581 179.887 224.674 179.65C224.768 179.412 224.908 179.196 225.085 179.013C225.263 178.83 225.475 178.684 225.709 178.584C225.944 178.483 226.195 178.43 226.45 178.427C226.705 178.424 226.958 178.472 227.195 178.567L256.069 189.993C256.488 190.158 256.836 190.465 257.053 190.86C257.27 191.254 257.342 191.712 257.257 192.155C257.172 192.597 256.936 192.996 256.588 193.283C256.241 193.569 255.804 193.725 255.354 193.724V193.763Z" fill="#FFAF2E"/>
<path opacity="0.3" d="M255.354 193.763C255.112 193.76 254.873 193.714 254.648 193.627L225.774 182.163C225.536 182.071 225.319 181.932 225.135 181.756C224.951 181.58 224.803 181.369 224.701 181.135C224.599 180.901 224.544 180.65 224.539 180.395C224.535 180.14 224.581 179.887 224.674 179.65C224.768 179.412 224.908 179.196 225.085 179.013C225.263 178.83 225.475 178.684 225.709 178.584C225.944 178.483 226.195 178.43 226.45 178.427C226.705 178.424 226.958 178.472 227.195 178.567L256.069 189.993C256.488 190.158 256.836 190.465 257.053 190.86C257.27 191.254 257.342 191.712 257.257 192.155C257.172 192.597 256.936 192.996 256.588 193.283C256.241 193.569 255.804 193.725 255.354 193.724V193.763Z" fill="#26272B"/>
<path d="M359.89 106.589C362.451 111.587 364.8 116.594 367.033 121.717C369.266 126.841 371.345 132.031 373.162 137.474L373.819 139.533C373.935 139.9 374.1 140.499 374.196 140.925C374.293 141.35 374.38 141.833 374.428 142.239C374.65 143.799 374.763 145.372 374.767 146.947C374.781 149.852 374.646 152.756 374.361 155.647C373.821 161.244 372.943 166.803 371.731 172.293L366.424 171.703C366.357 166.261 366.308 160.761 366.115 155.396C366.028 152.728 365.873 150.05 365.603 147.537C365.48 146.357 365.286 145.185 365.023 144.028C364.974 143.757 364.897 143.554 364.839 143.332C364.781 143.109 364.723 143.032 364.626 142.742L363.892 140.915C361.871 136.024 359.6 131.094 357.28 126.183L350.262 111.451L359.89 106.589Z" fill="#E4897B"/>
<path d="M366.502 170.002L364.027 174.632L371.935 176.836C371.935 176.836 373.443 173.115 371.645 170.176L366.502 170.002Z" fill="#E4897B"/>
<path d="M361 181.302L368.269 181.882L371.933 176.836L364.026 174.632L361 181.302Z" fill="#E4897B"/>
<path d="M326.607 73.1803C326.501 73.7506 326.104 74.1469 325.737 74.0696C325.37 73.9923 325.167 73.48 325.283 72.9193C325.399 72.3586 325.785 71.9526 326.153 72.03C326.52 72.1073 326.733 72.6196 326.607 73.1803Z" fill="#263238"/>
<path d="M326.164 74.147C325.143 75.7285 323.91 77.1628 322.5 78.41C322.829 78.7602 323.23 79.0349 323.676 79.2151C324.122 79.3953 324.601 79.4768 325.081 79.454L326.164 74.147Z" fill="#DE5753"/>
<path d="M329.293 70.4836C329.201 70.4812 329.114 70.443 329.051 70.3772C328.773 70.0596 328.425 69.8118 328.033 69.6539C327.642 69.4961 327.219 69.4326 326.799 69.4686C326.719 69.4693 326.641 69.4417 326.579 69.3905C326.518 69.3393 326.476 69.2679 326.462 69.189C326.448 69.1102 326.463 69.0289 326.503 68.9597C326.544 68.8905 326.607 68.8379 326.683 68.8112C327.22 68.7431 327.766 68.809 328.272 69.0029C328.778 69.1969 329.228 69.5129 329.583 69.9229C329.645 69.9861 329.679 70.0712 329.679 70.1597C329.679 70.2483 329.645 70.3333 329.583 70.3966C329.544 70.432 329.498 70.4582 329.448 70.4733C329.397 70.4883 329.344 70.4918 329.293 70.4836Z" fill="#263238"/>
<path d="M342.597 81.0781C341.582 86.2788 340.567 95.7908 344.202 99.2611C344.202 99.2611 342.781 104.529 333.124 104.529C322.491 104.529 328.059 99.2611 328.059 99.2611C333.859 97.8788 333.694 93.5771 332.689 89.5461L342.597 81.0781Z" fill="#E4897B"/>
<path d="M345.659 102.538C346.423 99.9957 347.264 97.086 345.524 96.1677C343.59 95.201 333.083 94.1377 329.458 96.0227C325.833 97.9077 326.867 103.079 326.867 103.079L345.659 102.538Z" fill="#263238"/>
<path d="M367.952 343.595C367.652 343.635 367.347 343.615 367.054 343.535C366.762 343.456 366.489 343.318 366.251 343.131C366.166 343.015 366.121 342.874 366.121 342.73C366.121 342.586 366.166 342.446 366.251 342.329C366.306 342.229 366.382 342.142 366.474 342.073C366.565 342.005 366.67 341.957 366.782 341.933C367.826 341.701 369.779 343.035 369.866 343.093C369.891 343.114 369.91 343.141 369.922 343.171C369.934 343.202 369.938 343.234 369.934 343.267C369.928 343.298 369.913 343.327 369.891 343.35C369.868 343.372 369.839 343.387 369.808 343.393C369.198 343.524 368.576 343.592 367.952 343.595ZM367.063 342.242H366.86C366.794 342.256 366.732 342.284 366.679 342.324C366.625 342.364 366.582 342.415 366.55 342.474C366.396 342.745 366.492 342.861 366.55 342.899C366.85 343.305 368.3 343.305 369.363 343.131C368.67 342.674 367.885 342.377 367.063 342.261V342.242Z" fill="#1B73A0"/>
<path d="M369.766 343.421H369.689C368.954 343.015 367.533 341.488 367.678 340.676C367.703 340.55 367.77 340.437 367.869 340.356C367.968 340.275 368.092 340.231 368.22 340.231C368.347 340.217 368.476 340.229 368.599 340.266C368.721 340.302 368.836 340.363 368.935 340.444C369.757 341.12 369.902 343.17 369.902 343.257C369.906 343.287 369.9 343.318 369.887 343.346C369.873 343.374 369.851 343.396 369.824 343.411C369.806 343.419 369.786 343.422 369.766 343.421ZM368.336 340.521H368.297C368.075 340.521 368.055 340.656 368.046 340.695C367.959 341.169 368.867 342.338 369.592 342.889C369.543 342.082 369.254 341.308 368.761 340.666C368.696 340.615 368.621 340.578 368.542 340.556C368.462 340.535 368.379 340.529 368.297 340.54L368.336 340.521Z" fill="#1B73A0"/>
<path d="M325.31 343.595C324.401 343.595 323.521 343.47 323.222 343.064C323.146 342.956 323.105 342.828 323.105 342.696C323.105 342.565 323.146 342.436 323.222 342.329C323.28 342.23 323.359 342.143 323.452 342.075C323.545 342.007 323.651 341.959 323.763 341.933C324.933 341.614 327.427 343.025 327.533 343.083C327.562 343.101 327.584 343.128 327.598 343.158C327.611 343.189 327.616 343.224 327.61 343.257C327.605 343.291 327.589 343.322 327.565 343.346C327.54 343.371 327.509 343.387 327.475 343.392C326.761 343.527 326.036 343.595 325.31 343.595ZM324.179 342.223C324.073 342.207 323.966 342.207 323.86 342.223C323.792 342.236 323.727 342.264 323.671 342.304C323.614 342.344 323.567 342.395 323.531 342.455C323.405 342.667 323.454 342.764 323.531 342.822C323.85 343.267 325.648 343.296 326.982 343.112C326.113 342.643 325.161 342.347 324.179 342.242V342.223Z" fill="#1B73A0"/>
<path d="M327.458 343.422H327.39C326.53 343.045 324.838 341.488 324.964 340.705C324.964 340.512 325.128 340.28 325.592 340.232C325.765 340.205 325.941 340.218 326.108 340.268C326.275 340.318 326.429 340.405 326.559 340.522C327.467 341.256 327.651 343.17 327.661 343.257C327.664 343.287 327.66 343.317 327.648 343.344C327.636 343.371 327.617 343.395 327.593 343.412C327.572 343.423 327.55 343.43 327.526 343.431C327.503 343.433 327.48 343.43 327.458 343.422ZM325.727 340.522H325.621C325.321 340.522 325.302 340.676 325.292 340.715C325.215 341.198 326.375 342.407 327.226 342.929C327.142 342.117 326.804 341.352 326.259 340.744C326.121 340.625 325.948 340.553 325.766 340.541L325.727 340.522Z" fill="#1B73A0"/>
<path d="M335.268 343.248H328.163L327.457 326.805H334.562L335.268 343.248Z" fill="#E4897B"/>
<path d="M377.906 343.248H370.801L367.234 326.805H374.33L377.906 343.248Z" fill="#E4897B"/>
<path d="M370.3 342.426H378.275C378.418 342.427 378.555 342.476 378.666 342.566C378.777 342.655 378.854 342.78 378.884 342.919L380.286 349.231C380.318 349.385 380.315 349.544 380.277 349.696C380.239 349.849 380.167 349.99 380.067 350.111C379.967 350.232 379.84 350.328 379.698 350.394C379.555 350.459 379.399 350.491 379.242 350.488C376.458 350.439 375.105 350.275 371.596 350.275C369.44 350.275 364.993 350.507 362.006 350.507C359.019 350.507 358.642 347.607 359.86 347.288C365.332 346.089 367.391 344.436 369.14 342.87C369.458 342.583 369.872 342.424 370.3 342.426Z" fill="#263238"/>
<path d="M328.21 342.426H335.944C336.086 342.427 336.224 342.476 336.334 342.566C336.445 342.655 336.522 342.78 336.553 342.919L337.954 349.231C337.988 349.383 337.986 349.541 337.95 349.693C337.914 349.845 337.844 349.986 337.746 350.107C337.647 350.228 337.523 350.325 337.381 350.391C337.24 350.457 337.085 350.49 336.93 350.488C334.136 350.439 330.095 350.275 326.577 350.275C322.468 350.275 318.911 350.507 314.087 350.507C311.187 350.507 310.366 347.607 311.584 347.288C317.142 346.07 321.676 345.944 326.48 342.986C326.991 342.639 327.592 342.444 328.21 342.426Z" fill="#263238"/>
<path d="M324.797 111.731C318.859 111.271 312.95 110.487 307.097 109.382C304.197 108.822 301.239 108.193 298.301 107.401C295.289 106.63 292.331 105.661 289.446 104.501C288.702 104.191 287.948 103.853 287.203 103.534C286.366 103.121 285.558 102.649 284.787 102.123C283.395 101.204 282.196 100.247 281.007 99.2999C278.639 97.3666 276.445 95.4332 274.241 93.4516C269.92 89.4496 265.821 85.3122 261.867 80.9623L265.425 76.9893L279.451 87.0716C281.761 88.7343 284.1 90.3679 286.401 91.9049C287.542 92.6686 288.711 93.3839 289.784 93.9929C290.233 94.2488 290.698 94.4748 291.176 94.6696C291.747 94.8919 292.327 95.1142 292.936 95.3269C298.16 96.9356 303.503 98.1315 308.915 98.9036C314.434 99.7736 320.138 100.489 325.648 101.069L324.797 111.731Z" fill="#E4897B"/>
<path d="M356.91 100.866C363.571 102.393 370.299 121.852 370.299 121.852L356.601 131.683C356.601 131.683 352.734 122.616 349.003 114.689C345.098 106.385 350.105 99.3093 356.91 100.866Z" fill="#1B73A0"/>
<path opacity="0.4" d="M356.91 100.866C363.571 102.393 370.299 121.852 370.299 121.852L356.601 131.683C356.601 131.683 352.734 122.616 349.003 114.689C345.098 106.385 350.105 99.3093 356.91 100.866Z" fill="#26272B"/>
<path d="M353.076 111.499L350.359 117.579C353.172 123.65 355.744 129.663 356.43 131.267C356.333 124.085 354.97 115.172 353.076 111.499Z" fill="#1B73A0"/>
<path opacity="0.6" d="M353.076 111.499L350.359 117.579C353.172 123.65 355.744 129.663 356.43 131.267C356.333 124.085 354.97 115.172 353.076 111.499Z" fill="#26272B"/>
<path d="M317.134 101.233C317.134 101.233 309.575 109.769 316.709 162.617H354.689C354.96 156.817 351.296 128.339 356.912 100.866C352.714 100.058 348.468 99.5217 344.201 99.2615C338.824 98.9519 333.434 98.9519 328.057 99.2615C324.37 99.6329 320.718 100.292 317.134 101.233Z" fill="#1B73A0"/>
<path opacity="0.4" d="M317.134 101.233C317.134 101.233 309.575 109.769 316.709 162.617H354.689C354.96 156.817 351.296 128.339 356.912 100.866C352.714 100.058 348.468 99.5217 344.201 99.2615C338.824 98.9519 333.434 98.9519 328.057 99.2615C324.37 99.6329 320.718 100.292 317.134 101.233Z" fill="#26272B"/>
<path d="M314.32 111.499C314.069 113.5 313.876 115.868 313.75 118.662C317.501 117.536 321.064 115.862 324.325 113.693L314.32 111.499Z" fill="#1B73A0"/>
<path opacity="0.6" d="M314.32 111.499C314.069 113.5 313.876 115.868 313.75 118.662C317.501 117.536 321.064 115.862 324.325 113.693L314.32 111.499Z" fill="#26272B"/>
<path d="M330.598 112.562C325.513 117.067 306.103 116.613 306.103 116.613L305.465 97.8208C312.02 98.7545 318.631 99.2325 325.252 99.2515C336.069 99.0291 336.147 107.594 330.598 112.562Z" fill="#1B73A0"/>
<path opacity="0.4" d="M330.598 112.562C325.513 117.067 306.103 116.613 306.103 116.613L305.465 97.8208C312.02 98.7545 318.631 99.2325 325.252 99.2515C336.069 99.0291 336.147 107.594 330.598 112.562Z" fill="#26272B"/>
<path d="M265.61 77.0276L260.777 71.334L255.566 77.134C255.566 77.134 258.776 82.528 263.87 81.6773L265.61 77.0276Z" fill="#E4897B"/>
<path d="M253.856 64.6929L251.98 72.1265L255.528 77.0952L260.738 71.3339L253.856 64.6929Z" fill="#E4897B"/>
<path d="M327.457 326.814L327.824 335.282H334.929L334.562 326.814H327.457Z" fill="#CE6F64"/>
<path d="M374.339 326.814H367.234L369.071 335.282H376.176L374.339 326.814Z" fill="#CE6F64"/>
<path d="M331.732 66.1625C325.361 63.2626 323.351 50.3769 341.679 53.5959C341.679 53.5959 338.914 56.6506 344.521 58.5839C350.127 60.5172 345.439 72.4555 331.732 66.1625Z" fill="#263238"/>
<path d="M345.574 75.8293C343.747 82.5959 343.031 86.7139 338.807 89.5463C332.485 93.7996 324.626 88.9179 324.375 81.6969C324.152 75.2106 327.178 65.1669 334.476 63.7943C336.087 63.4784 337.752 63.5806 339.312 64.091C340.873 64.6013 342.276 65.503 343.389 66.7098C344.502 67.9167 345.287 69.3885 345.669 70.9849C346.052 72.5814 346.019 74.2492 345.574 75.8293Z" fill="#E4897B"/>
<path d="M341.427 56.9792C345.767 59.3958 351.645 60.8458 351.094 64.2872C350.369 68.4922 354.641 65.8628 353.646 72.1172C352.998 76.2061 345.458 88.5988 340.112 87.9995C332.128 87.0328 333.143 74.8915 333.114 68.4922C333.094 64.7125 332.92 52.2135 341.427 56.9792Z" fill="#263238"/>
<path d="M332.155 62.4023C330.222 62.8567 327.66 74.0023 335.152 75.027C343.765 76.1967 332.155 62.4023 332.155 62.4023Z" fill="#263238"/>
<path d="M332.35 66.3559C329.982 66.5686 324.617 63.7169 325.274 59.4249C325.274 59.3959 328.667 64.4419 332.35 66.3559Z" fill="#263238"/>
<path d="M335.869 75.9162C335.142 77.51 333.908 78.8186 332.36 79.6379C330.32 80.7012 329.17 79.1546 329.634 77.1052C330.049 75.2686 331.615 72.4942 333.713 72.2719C335.811 72.0496 336.71 73.9829 335.869 75.9162Z" fill="#E4897B"/>
<path d="M346.5 68.0959C347.945 67.469 349.211 66.4936 350.186 65.257C351.161 64.0204 351.815 62.5613 352.087 61.0103C352.087 61.0103 355.277 69.8746 346.5 68.0959Z" fill="#263238"/>
<path d="M354.562 67.9506C353.889 67.4989 353.115 67.2209 352.309 67.1416C351.503 67.0623 350.689 67.1842 349.941 67.4963C349.941 67.4963 352.919 63.6393 354.562 67.9506Z" fill="#263238"/>
<path d="M330.184 162.616C330.184 162.616 338.246 216.885 342.663 237.214C347.497 259.447 365.767 333.648 365.767 333.648H378.768C378.768 333.648 366.733 261.274 363.969 239.196C360.972 215.271 354.689 162.578 354.689 162.578L330.184 162.616Z" fill="#1B73A0"/>
<path opacity="0.5" d="M330.184 162.616C330.184 162.616 338.246 216.885 342.663 237.214C347.497 259.447 365.767 333.648 365.767 333.648H378.768C378.768 333.648 366.733 261.274 363.969 239.196C360.972 215.271 354.689 162.578 354.689 162.578L330.184 162.616Z" fill="white"/>
<path d="M363.689 328.854C363.631 328.854 365.033 333.851 365.033 333.851H379.668L379.398 329.395L363.689 328.854Z" fill="#1B73A0"/>
<path opacity="0.1" d="M363.689 328.854C363.631 328.854 365.033 333.851 365.033 333.851H379.668L379.398 329.395L363.689 328.854Z" fill="#26272B"/>
<path d="M335.277 181.949C344.596 183.776 343.61 218.528 342.489 236.401C339.801 223.767 335.867 199.456 333.18 182.201C333.83 181.88 334.57 181.792 335.277 181.949Z" fill="#1B73A0"/>
<path opacity="0.4" d="M335.277 181.949C344.596 183.776 343.61 218.528 342.489 236.401C339.801 223.767 335.867 199.456 333.18 182.201C333.83 181.88 334.57 181.792 335.277 181.949Z" fill="white"/>
<path d="M316.708 162.616C316.708 162.616 315.741 215.705 316.505 237.368C317.307 259.892 325.205 333.648 325.205 333.648H337.23C337.23 333.648 337.675 261.206 338.197 239.089C338.786 214.971 341.696 162.616 341.696 162.616H316.708Z" fill="#1B73A0"/>
<path opacity="0.5" d="M316.708 162.616C316.708 162.616 315.741 215.705 316.505 237.368C317.307 259.892 325.205 333.648 325.205 333.648H337.23C337.23 333.648 337.675 261.206 338.197 239.089C338.786 214.971 341.696 162.616 341.696 162.616H316.708Z" fill="white"/>
<path d="M327.7 325.006C327.671 325.007 327.642 324.996 327.621 324.976C327.599 324.956 327.586 324.929 327.584 324.9C325.457 304.484 320.459 255.087 319.85 237.368C319.203 219.282 319.792 178.702 319.986 166.696C319.986 166.665 319.998 166.635 320.02 166.614C320.041 166.592 320.071 166.58 320.102 166.58C320.134 166.579 320.164 166.591 320.187 166.613C320.211 166.634 320.225 166.664 320.227 166.696C320.034 178.702 319.444 219.282 320.092 237.359C320.72 255.078 325.718 304.455 327.825 324.871C327.826 324.904 327.814 324.936 327.793 324.961C327.772 324.985 327.742 325.002 327.709 325.006H327.7Z" fill="#1B73A0"/>
<path opacity="0.4" d="M327.7 325.006C327.671 325.007 327.642 324.996 327.621 324.976C327.599 324.956 327.586 324.929 327.584 324.9C325.457 304.484 320.459 255.087 319.85 237.368C319.203 219.282 319.792 178.702 319.986 166.696C319.986 166.665 319.998 166.635 320.02 166.614C320.041 166.592 320.071 166.58 320.102 166.58C320.134 166.579 320.164 166.591 320.187 166.613C320.211 166.634 320.225 166.664 320.227 166.696C320.034 178.702 319.444 219.282 320.092 237.359C320.72 255.078 325.718 304.455 327.825 324.871C327.826 324.904 327.814 324.936 327.793 324.961C327.772 324.985 327.742 325.002 327.709 325.006H327.7Z" fill="white"/>
<path d="M322.866 328.854C322.817 328.854 323.552 333.851 323.552 333.851H338.178L338.574 329.395L322.866 328.854Z" fill="#1B73A0"/>
<path opacity="0.1" d="M322.866 328.854C322.817 328.854 323.552 333.851 323.552 333.851H338.178L338.574 329.395L322.866 328.854Z" fill="#26272B"/>
</svg>
