<svg width="1349" height="603" viewBox="0 0 1349 603" fill="none" xmlns="http://www.w3.org/2000/svg">
<rect x="86" y="116" width="1263" height="422" rx="60" fill="#007AFF"/>
<mask id="mask0_447_1538" style="mask-type:alpha" maskUnits="userSpaceOnUse" x="-35" y="127" width="1375" height="397">
<rect x="-34.5" y="127" width="1374" height="396.658" rx="84.1172" fill="#F2994A"/>
</mask>
<g mask="url(#mask0_447_1538)">
<path d="M816.323 570.579C686.71 478.222 569.853 273.193 691.251 158.726C803.807 52.5962 863.287 171.082 993.878 103.742C1124.47 36.4025 1058.83 -160.642 1208.02 -207.923C1294.61 -235.366 1400.67 -189.944 1457.18 -87.0376C1513.69 15.8692 1520.64 176.261 1409.02 378.758C1303.58 570.04 1174.23 631.408 1061.83 638.25C949.426 645.093 853.972 597.407 816.323 570.579Z" stroke="#D0D0D0" stroke-opacity="0.4" stroke-width="2.10293" stroke-miterlimit="10"/>
<path d="M1393.41 378.687C1297.01 554.287 1178.49 611.41 1075.06 618.257C972.299 624.897 884.707 581.86 849.208 557.13C728.655 472.582 619.689 283.525 728.335 175.492C828.653 75.7392 883.765 179.584 1003.46 116.752C1006.86 114.952 1010.13 113.061 1013.26 111.085C1098.13 57.5863 1086.52 -59.3122 1143.38 -126.55C1158.81 -144.803 1179.21 -159.491 1207.83 -168.187C1290.14 -193.199 1388.05 -150.339 1439.69 -54.8544C1491.48 41.1583 1496.46 190.572 1393.41 378.687Z" stroke="#D0D0D0" stroke-opacity="0.4" stroke-width="2.10293" stroke-miterlimit="10"/>
<path d="M1377.96 378.497C1290.55 538.398 1182.83 591.285 1088.35 598.153C995.213 604.607 915.398 566.35 882.123 543.619C770.364 467.276 669.554 293.918 765.493 192.286C853.609 98.9422 904.559 188.455 1013.18 129.752C1016.31 128.061 1019.31 126.268 1022.2 124.412C1100.26 74.3559 1093.45 -31.1543 1147.54 -91.2152C1162.32 -107.615 1181.46 -120.806 1207.86 -128.438C1285.92 -151.013 1375.68 -110.754 1422.45 -22.717C1469.51 66.3748 1472.49 204.78 1377.96 378.497Z" stroke="#D0D0D0" stroke-opacity="0.4" stroke-width="2.10293" stroke-miterlimit="10"/>
<path d="M1362.5 378.308C1284.09 522.511 1187.19 571.395 1101.64 578.051C1018.15 584.546 946.133 550.781 915.036 530.109C812.23 461.765 719.415 304.354 802.651 209.082C878.566 122.187 925.235 197.113 1022.9 142.754C1025.75 141.164 1028.49 139.476 1031.13 137.74C1102.39 91.1257 1100.41 -2.99211 1151.71 -55.8791C1165.82 -70.4258 1183.72 -82.1065 1207.89 -88.689C1281.72 -108.803 1363.3 -71.1697 1405.21 9.41981C1447.54 91.5919 1448.52 218.99 1362.5 378.308Z" stroke="#D0D0D0" stroke-opacity="0.4" stroke-width="2.10293" stroke-miterlimit="10"/>
<path d="M1347.05 378.118C1277.91 506.766 1191.54 551.337 1114.93 557.947C1041.07 564.319 976.873 535.207 947.949 516.598C854.118 456.23 769.277 314.848 839.806 225.876C903.532 145.487 945.9 205.742 1032.61 155.755C1035.2 154.266 1037.67 152.683 1040.07 151.067C1104.52 107.895 1107.39 25.1758 1155.88 -20.5437C1169.34 -33.2365 1185.99 -43.3907 1207.91 -48.9401C1277.54 -66.5639 1351.12 -31.6752 1387.96 41.5573C1425.77 116.716 1424.86 233.36 1347.05 378.118Z" stroke="#D0D0D0" stroke-opacity="0.4" stroke-width="2.10293" stroke-miterlimit="10"/>
<path d="M1331.6 377.93C1271.5 490.9 1195.89 531.273 1128.22 537.844C1063.99 544.082 1007.62 519.626 980.863 503.088C896.038 450.663 819.156 325.422 876.964 242.671C928.525 168.862 966.555 214.335 1042.33 168.755C1044.64 167.367 1046.85 165.89 1049 164.395C1106.65 124.665 1114.42 53.358 1160.05 14.7919C1172.87 3.95566 1188.27 -4.65412 1207.95 -9.19112C1273.39 -24.2813 1338.78 7.89839 1370.72 73.6942C1403.84 141.921 1400.95 247.598 1331.6 377.93Z" stroke="#D0D0D0" stroke-opacity="0.4" stroke-width="2.10293" stroke-miterlimit="10"/>
<path d="M1316.15 377.74C1265.06 475.023 1200.24 511.193 1141.51 517.74C1086.91 523.827 1038.38 504.033 1013.78 489.577C937.993 445.052 869.082 336.106 914.122 259.466C953.573 192.338 987.188 222.881 1052.05 181.757C1054.08 180.468 1056.03 179.098 1057.94 177.723C1108.78 141.435 1121.5 81.568 1164.22 50.1274C1176.41 41.154 1190.55 34.1085 1207.98 30.5578C1269.27 18.0641 1326.43 47.4798 1353.48 105.832C1381.89 167.132 1377.02 261.827 1316.15 377.74Z" stroke="#D0D0D0" stroke-opacity="0.4" stroke-width="2.10293" stroke-miterlimit="10"/>
<path d="M1300.7 377.551C1258.61 459.134 1204.6 491.092 1154.8 497.638C1109.84 503.548 1069.15 488.423 1046.69 476.067C979.995 439.379 915.238 345.095 951.279 276.261C982.041 217.51 1007.79 231.36 1061.77 194.758C1063.52 193.566 1065.21 192.305 1066.88 191.05C1110.91 158.204 1128.63 109.825 1168.39 85.4626C1179.97 78.365 1192.85 72.9039 1208.01 70.3064C1265.18 60.505 1314.06 87.0707 1336.24 137.969C1359.93 192.354 1353.07 276.044 1300.7 377.551Z" stroke="#D0D0D0" stroke-opacity="0.4" stroke-width="2.10293" stroke-miterlimit="10"/>
<path d="M1285.25 377.362C1252.11 443.224 1208.95 470.95 1168.09 477.535C1132.76 483.229 1099.94 472.785 1079.6 462.557C1022.05 433.617 969.394 357.916 988.436 293.056C1004.1 239.688 1028.33 239.748 1071.48 207.759C1072.96 206.662 1074.39 205.512 1075.81 204.377C1113.04 174.974 1135.83 138.167 1172.55 120.798C1183.54 115.601 1195.16 111.743 1208.03 110.056C1261.12 103.101 1301.66 126.674 1318.99 170.106C1337.94 217.588 1329.08 290.238 1285.25 377.362Z" stroke="#D0D0D0" stroke-opacity="0.4" stroke-width="2.10293" stroke-miterlimit="10"/>
<path d="M1269.8 377.172C1245.56 427.284 1213.28 450.727 1181.38 457.432C1155.66 462.836 1130.76 457.095 1112.52 449.047C1064.17 427.717 1020.15 368.976 1025.59 309.851C1029.86 263.492 1048.76 248.008 1081.2 220.76C1082.4 219.754 1083.57 218.72 1084.75 217.705C1115.16 191.744 1143.07 166.65 1176.72 156.134C1187.13 152.881 1197.47 150.636 1208.06 149.804C1257.08 145.957 1289.22 166.292 1301.75 202.243C1315.9 242.84 1305.01 304.392 1269.8 377.172Z" stroke="#D0D0D0" stroke-opacity="0.4" stroke-width="2.10293" stroke-miterlimit="10"/>
<path d="M1062.75 326.646C1055.85 285.413 1070.08 253.552 1093.69 231.033C1117.29 208.514 1150.28 195.337 1180.89 191.47C1243.69 183.537 1275.25 200.651 1284.51 234.381C1293.77 268.11 1280.73 318.455 1254.35 376.983C1227.97 435.511 1184.52 449.477 1145.43 435.536C1106.35 421.596 1071.64 379.748 1062.75 326.646Z" stroke="#D0D0D0" stroke-opacity="0.4" stroke-width="2.10293" stroke-miterlimit="10"/>
</g>
<g opacity="0.1">
<path d="M416.465 256.868C347.837 109.168 312.138 53.0613 200.016 55.4091C160.073 56.2218 169.645 26.4529 139.184 37.7404C108.783 49.0279 134.879 65.5528 103.756 91.1077C16.4057 162.836 24.4424 229.176 64.957 387.292C82.0237 453.903 23.8103 457.154 46.8368 521.688C63.6627 568.765 187.675 588.48 318.489 539.959C449.334 491.408 531.778 395.058 514.952 347.981C491.925 283.417 445.391 319.055 416.465 256.868ZM304.312 500.167C187.464 543.511 91.445 518.046 87.3815 506.699C80.3983 487.134 125.097 421.937 258.681 372.362C392.264 322.787 466.822 341.179 474.618 363.001C479.223 375.914 421.19 456.793 304.312 500.167ZM266.747 394.997C205.674 417.663 163.233 443.579 135.722 466.906C155.076 484.485 191.317 488.759 227.407 475.364C273.369 458.358 301.633 419.198 290.466 387.954L289.985 386.87C282.429 389.339 274.694 392.017 266.747 394.997Z" fill="#F2F2F2"/>
</g>
<g opacity="0.1" filter="url(#filter0_d_447_1538)">
<path d="M660.857 139.826C632.243 78.2428 617.359 54.8496 570.61 55.8285C553.957 56.1674 557.947 43.7554 545.247 48.4617C532.571 53.1679 543.452 60.0579 530.476 70.7128C494.055 100.619 497.406 128.28 514.299 194.205C521.414 221.978 497.143 223.333 506.743 250.241C513.759 269.869 565.465 278.089 620.007 257.858C674.562 237.615 708.936 197.443 701.921 177.815C692.32 150.895 672.918 165.754 660.857 139.826ZM614.096 241.267C565.377 259.339 525.343 248.722 523.648 243.991C520.737 235.833 539.373 208.65 595.07 187.98C650.767 167.31 681.854 174.978 685.104 184.077C687.024 189.461 662.828 223.183 614.096 241.267ZM598.434 197.418C572.97 206.868 555.274 217.673 543.804 227.4C551.873 234.729 566.983 236.511 582.031 230.926C601.195 223.835 612.979 207.508 608.323 194.481L608.122 194.029C604.972 195.058 601.747 196.175 598.434 197.418Z" fill="#F2F2F2"/>
</g>
<defs>
<filter id="filter0_d_447_1538" x="473" y="33" width="259" height="259" filterUnits="userSpaceOnUse" color-interpolation-filters="sRGB">
<feFlood flood-opacity="0" result="BackgroundImageFix"/>
<feColorMatrix in="SourceAlpha" type="matrix" values="0 0 0 0 0 0 0 0 0 0 0 0 0 0 0 0 0 0 127 0" result="hardAlpha"/>
<feOffset dy="4"/>
<feGaussianBlur stdDeviation="2"/>
<feComposite in2="hardAlpha" operator="out"/>
<feColorMatrix type="matrix" values="0 0 0 0 0 0 0 0 0 0 0 0 0 0 0 0 0 0 0.25 0"/>
<feBlend mode="normal" in2="BackgroundImageFix" result="effect1_dropShadow_447_1538"/>
<feBlend mode="normal" in="SourceGraphic" in2="effect1_dropShadow_447_1538" result="shape"/>
</filter>
</defs>
</svg>
