<svg width="25" height="24" viewBox="0 0 25 24" fill="none" xmlns="http://www.w3.org/2000/svg">
<rect width="24" height="24" transform="translate(0.5)" fill="white"/>
<path d="M11.5 19.25H6.5C4.923 19.25 4.25 18.577 4.25 17V5C4.25 3.423 4.923 2.75 6.5 2.75H11.75V5C11.75 7.418 13.082 8.75 15.5 8.75H17.75V11C17.75 11.414 18.086 11.75 18.5 11.75C18.914 11.75 19.25 11.414 19.25 11V8C19.25 7.801 19.171 7.61 19.03 7.47L13.03 1.47C12.889 1.329 12.699 1.25 12.5 1.25H6.5C4.082 1.25 2.75 2.582 2.75 5V17C2.75 19.418 4.082 20.75 6.5 20.75H11.5C11.914 20.75 12.25 20.414 12.25 20C12.25 19.586 11.914 19.25 11.5 19.25ZM13.25 5V3.811L16.689 7.25H15.5C13.923 7.25 13.25 6.577 13.25 5ZM14.5 10.25C14.914 10.25 15.25 10.586 15.25 11C15.25 11.414 14.914 11.75 14.5 11.75H7.5C7.086 11.75 6.75 11.414 6.75 11C6.75 10.586 7.086 10.25 7.5 10.25H14.5ZM12.25 15C12.25 15.414 11.914 15.75 11.5 15.75H7.5C7.086 15.75 6.75 15.414 6.75 15C6.75 14.586 7.086 14.25 7.5 14.25H11.5C11.914 14.25 12.25 14.586 12.25 15ZM18.5 13.25C15.881 13.25 13.75 15.381 13.75 18C13.75 20.619 15.881 22.75 18.5 22.75C21.119 22.75 23.25 20.619 23.25 18C23.25 15.381 21.119 13.25 18.5 13.25ZM18.5 21.25C16.708 21.25 15.25 19.792 15.25 18C15.25 16.208 16.708 14.75 18.5 14.75C20.292 14.75 21.75 16.208 21.75 18C21.75 19.792 20.292 21.25 18.5 21.25ZM20.28 16.636C20.573 16.929 20.573 17.404 20.28 17.697L18.613 19.364C18.472 19.504 18.282 19.583 18.083 19.583C17.884 19.583 17.693 19.504 17.553 19.363L16.72 18.53C16.427 18.237 16.427 17.762 16.72 17.469C17.013 17.177 17.488 17.176 17.781 17.469L18.084 17.772L19.2209 16.636C19.5129 16.344 19.987 16.344 20.28 16.636Z" fill="black"/>
</svg>
