<svg width="60" height="54" viewBox="0 0 60 54" fill="none" xmlns="http://www.w3.org/2000/svg">
<g clip-path="url(#clip0_31_4110)">
<path d="M59.1968 35.4877C57.8496 33.6589 55.2805 33.2636 53.4538 34.6181L41.1627 43.6716H28.7793C27.881 43.6716 27.2288 42.9271 27.2288 42.0297C27.2288 41.1312 27.9732 40.3868 28.7793 40.3868H36.8141C38.3646 40.3868 39.9716 39.2696 40.2406 37.6534C40.5744 35.5997 38.9961 33.8151 36.9938 33.8151H20.4753C17.7953 33.8151 15.0209 34.7649 12.8645 36.5105L8.08982 40.3858L2.40328 40.2932C1.59733 40.2932 0.852783 41.1352 0.852783 42.0286V51.884C0.852783 52.7897 1.59733 53.529 2.40328 53.529H37.9416C40.2037 53.529 42.4514 52.7909 44.2771 51.4476L58.1494 41.2287C60.1517 39.8825 60.5419 37.3154 59.1968 35.4877ZM29.5319 18.9251C28.7515 18.8121 27.7247 18.4425 26.8211 18.1139L26.318 17.9393C25.0344 17.3951 23.6277 18.155 23.1759 19.3461C22.7241 20.5372 23.3937 22.0363 24.674 22.4923L25.152 22.6623C26.0234 22.9766 26.988 23.2881 27.9645 23.5158V24.778C27.9645 26.1385 29.0663 27.2423 30.4268 27.2423C31.7873 27.2423 32.8912 26.1385 32.8912 24.778V23.7101C35.4859 23.1224 37.2942 21.4665 37.6248 19.0154C38.5169 13.8762 33.6315 12.4787 31.01 11.7301L30.4663 11.5422C27.7658 10.7762 27.9198 10.4456 27.9917 10.0236C28.1104 9.3288 29.5627 8.99057 31.2991 9.26463C31.8061 9.34482 32.4666 9.52616 33.3168 9.82137C34.6034 10.261 36.0081 9.58397 36.4506 8.29757C36.8932 7.01117 36.2135 5.60832 34.9268 5.16268C34.1462 4.89293 33.4975 4.71519 32.8917 4.57524V3.42006C32.8917 2.05952 31.7878 0.955688 30.4273 0.955688C29.0668 0.955688 27.965 2.05952 27.965 3.42006V4.50028C25.3733 5.08659 23.5558 6.73156 23.0424 9.18361C22.2517 14.2633 27.2113 15.7214 29.0801 16.2759L29.7473 16.4684C32.9983 17.3989 32.9459 17.6893 32.8627 18.177C32.7459 18.8737 31.298 19.2126 29.5319 18.9251Z" fill="#007AFF"/>
</g>
<defs>
<clipPath id="clip0_31_4110">
<rect width="59.1449" height="52.5733" fill="white" transform="translate(0.852783 0.955688)"/>
</clipPath>
</defs>
</svg>
