<svg width="54" height="54" viewBox="0 0 54 54" fill="none" xmlns="http://www.w3.org/2000/svg">
<path d="M21.4002 48.3353C23.2705 48.8471 25.2005 49.1078 27.1395 49.1108L27.4484 49.1086C28.5553 49.0948 29.6409 48.8014 30.604 48.2557C31.5672 47.7099 32.3768 46.9295 32.9576 45.9871C34.1449 44.0681 34.2719 41.7089 33.2928 39.6783L32.859 38.7692C31.8667 36.7057 32.6465 34.835 33.709 33.7725C34.7714 32.7101 36.6465 31.9303 38.7034 32.9226H38.7056L39.6103 33.3585C40.6051 33.8395 41.7055 34.0611 42.8089 34.0025C43.9123 33.9439 44.983 33.6071 45.9213 33.0234C46.8643 32.443 47.6453 31.6336 48.1914 30.6703C48.7376 29.7071 49.0312 28.6213 49.045 27.5141C49.0724 25.4725 48.8121 23.4372 48.2718 21.4682C45.998 13.0849 38.7363 6.6732 30.2085 5.51001C23.3104 4.57465 16.5372 6.82873 11.6523 11.7159C6.76735 16.603 4.50232 23.3652 5.44426 30.272C6.60525 38.802 13.0192 46.0615 21.4002 48.3353ZM34.8064 14.0619C35.6779 14.0619 36.5137 14.4081 37.1299 15.0243C37.7461 15.6405 38.0923 16.4763 38.0923 17.3478C38.0923 18.2192 37.7461 19.055 37.1299 19.6712C36.5137 20.2874 35.6779 20.6336 34.8064 20.6336C33.935 20.6336 33.0992 20.2874 32.483 19.6712C31.8668 19.055 31.5206 18.2192 31.5206 17.3478C31.5206 16.4763 31.8668 15.6405 32.483 15.0243C33.0992 14.4081 33.935 14.0619 34.8064 14.0619ZM23.8537 11.8714C24.7251 11.8714 25.5609 12.2176 26.1771 12.8338C26.7933 13.45 27.1395 14.2858 27.1395 15.1572C27.1395 16.0287 26.7933 16.8644 26.1771 17.4806C25.5609 18.0969 24.7251 18.443 23.8537 18.443C22.9822 18.443 22.1464 18.0969 21.5302 17.4806C20.914 16.8644 20.5678 16.0287 20.5678 15.1572C20.5678 14.2858 20.914 13.45 21.5302 12.8338C22.1464 12.2176 22.9822 11.8714 23.8537 11.8714ZM20.5678 34.8853C20.5678 35.7568 20.2217 36.5926 19.6054 37.2088C18.9892 37.825 18.1535 38.1712 17.282 38.1712C16.4106 38.1712 15.5748 37.825 14.9586 37.2088C14.3424 36.5926 13.9962 35.7568 13.9962 34.8853C13.9962 34.0139 14.3424 33.1781 14.9586 32.5619C15.5748 31.9457 16.4106 31.5995 17.282 31.5995C18.1535 31.5995 18.9892 31.9457 19.6054 32.5619C20.2217 33.1781 20.5678 34.0139 20.5678 34.8853ZM15.0915 20.6467C15.9632 20.647 16.7991 20.9936 17.4153 21.6102C18.0316 22.2269 18.3776 23.063 18.3773 23.9348C18.377 24.8065 18.0304 25.6424 17.4138 26.2586C16.7972 26.8749 15.961 27.2209 15.0893 27.2206C14.2175 27.2203 13.3816 26.8737 12.7654 26.2571C12.1492 25.6405 11.8031 24.8043 11.8034 23.9326C11.8037 23.0608 12.1503 22.2249 12.7669 21.6087C13.3835 20.9925 14.2197 20.6464 15.0915 20.6467Z" fill="#007AFF"/>
</svg>
