<svg width="262" height="171" viewBox="0 0 262 171" fill="none" xmlns="http://www.w3.org/2000/svg">
<path d="M-18 10.1995C-18 4.67661 -13.5228 0.199463 -8 0.199463H42C47.5229 0.199463 52 4.67662 52 10.1995V57.0179H-8C-13.5228 57.0179 -18 52.5408 -18 47.0179V10.1995Z" fill="#EFEFEF"/>
<path d="M52 57.0178H112C117.523 57.0178 122 61.495 122 67.0178V113.836H52V57.0178Z" fill="#EFEFEF"/>
<path d="M192 67.0178C192 61.495 196.477 57.0178 202 57.0178H252C257.523 57.0178 262 61.495 262 67.0178V103.836C262 109.359 257.523 113.836 252 113.836H192V67.0178Z" fill="#EFEFEF"/>
<path d="M-18 123.836C-18 118.314 -13.5228 113.836 -8 113.836H52V160.655C52 166.178 47.5229 170.655 42 170.655H-8C-13.5228 170.655 -18 166.178 -18 160.655V123.836Z" fill="#EFEFEF"/>
<path d="M122 113.836H192V160.655C192 166.178 187.523 170.655 182 170.655H132C126.477 170.655 122 166.178 122 160.655V113.836Z" fill="#EFEFEF"/>
</svg>
