<svg width="280" height="180" viewBox="0 0 280 180" fill="none" xmlns="http://www.w3.org/2000/svg">
<path d="M0 10C0 4.47715 4.47715 0 10 0H60C65.5228 0 70 4.47715 70 10V60H10C4.47715 60 0 55.5228 0 50V10Z" fill="#1A202C"/>
<path d="M70 60H130C135.523 60 140 64.4772 140 70V120H70V60Z" fill="#1A202C"/>
<path d="M210 70C210 64.4772 214.477 60 220 60H270C275.523 60 280 64.4772 280 70V110C280 115.523 275.523 120 270 120H210V70Z" fill="#1A202C"/>
<path d="M0 130C0 124.477 4.47715 120 10 120H70V170C70 175.523 65.5228 180 60 180H10C4.47715 180 0 175.523 0 170V130Z" fill="#1A202C"/>
<path d="M140 120H210V170C210 175.523 205.523 180 200 180H150C144.477 180 140 175.523 140 170V120Z" fill="#1A202C"/>
</svg>
