<svg width="53" height="54" viewBox="0 0 53 54" fill="none" xmlns="http://www.w3.org/2000/svg">
<g clip-path="url(#clip0_31_4132)">
<path d="M13.7253 20.6335H44.0462V15.7048C44.0462 12.9837 42.0838 10.776 39.6651 10.776H25.0614L19.2199 4.20435H4.61621C2.19657 4.20435 0.235107 6.41099 0.235107 9.13309V42.8539L8.49897 24.2582C9.49019 22.03 11.4982 20.6335 13.7253 20.6335ZM49.8055 23.9193H13.7253C12.6209 23.9193 11.6077 24.6176 11.1149 25.7368L0.235107 50.206H41.0433C42.1495 50.206 43.1608 49.5024 43.6555 48.3895L52.4177 28.6745C53.4655 26.4864 52.0508 23.9193 49.8055 23.9193Z" fill="#007AFF"/>
</g>
<defs>
<clipPath id="clip0_31_4132">
<rect width="52.5733" height="52.5733" fill="white" transform="translate(0.235107 0.918701)"/>
</clipPath>
</defs>
</svg>
