<svg width="719" height="1044" viewBox="0 0 719 1044" fill="none" xmlns="http://www.w3.org/2000/svg">
<path d="M302.832 755.835C169.228 627.351 68.9345 365.683 227.346 245.328C374.219 133.738 422.929 283.846 584.099 221.201C745.268 158.556 702.491 -86.4876 881.699 -122.545C985.717 -143.474 1100.04 -74.4509 1147.91 56.5881C1195.79 187.627 1177.22 380.682 1015.46 607.815C862.662 822.369 703.908 878.034 573.653 870.731C443.397 863.429 341.639 793.156 302.832 755.835Z" stroke="url(#paint0_linear_31_4055)" stroke-opacity="0.5" stroke-width="2.10293" stroke-miterlimit="10"/>
<path d="M997.74 605.46C857.875 802.455 712.232 854.534 592.256 848.489C473.088 842.288 379.577 778.692 342.888 744.19C218.386 626.348 124.518 384.957 267.256 270.556C399.052 164.924 445.166 296.861 593.109 238.108C597.316 236.421 601.378 234.606 605.304 232.671C711.69 180.298 717.717 38.7199 794.19 -33.9633C814.95 -53.6935 840.825 -68.4722 875.145 -74.944C973.865 -93.5595 1079.26 -28.7537 1122.77 92.6957C1166.37 214.797 1147.32 394.396 997.74 605.46Z" stroke="url(#paint1_linear_31_4055)" stroke-opacity="0.5" stroke-width="2.10293" stroke-miterlimit="10"/>
<path d="M980.019 603.105C853.089 782.54 720.554 831.034 610.858 826.247C502.778 821.149 417.411 764.347 382.946 732.545C267.189 625.738 180.089 404.269 307.167 295.784C423.881 196.145 467.586 310.348 602.12 255.014C605.998 253.419 609.737 251.685 613.364 249.86C711.357 200.672 721.018 73.3925 793.124 8.92269C812.813 -8.68096 837.002 -21.8386 868.592 -27.3431C962.029 -43.6241 1058.48 16.943 1097.64 128.804C1136.94 241.967 1117.43 408.109 980.019 603.105Z" stroke="url(#paint2_linear_31_4055)" stroke-opacity="0.5" stroke-width="2.10293" stroke-miterlimit="10"/>
<path d="M962.297 600.751C848.301 762.626 728.863 807.817 629.46 804.005C532.454 800.285 455.306 749.936 423.002 720.9C316.205 624.904 235.65 423.632 347.076 321.012C448.703 227.416 489.908 323.562 611.13 271.92C614.675 270.41 618.097 268.765 621.422 267.05C711.024 221.046 724.344 108.073 792.056 51.8093C810.681 36.3339 833.185 24.8121 862.038 20.2576C950.209 6.34104 1037.71 62.6392 1072.5 164.911C1107.52 269.138 1087.53 421.823 962.297 600.751Z" stroke="url(#paint3_linear_31_4055)" stroke-opacity="0.5" stroke-width="2.10293" stroke-miterlimit="10"/>
<path d="M944.575 598.396C843.807 742.921 737.184 784.398 648.062 781.763C562.142 779.221 493.207 735.521 463.058 709.254C365.252 624.045 291.201 443.065 386.985 346.24C473.528 258.755 512.223 336.741 620.139 288.826C623.353 287.399 626.454 285.844 629.48 284.239C710.689 241.42 727.703 142.764 790.987 94.6951C808.557 81.3499 829.372 71.484 855.483 67.8583C938.407 56.3441 1017.16 108.254 1047.36 201.019C1078.35 296.224 1057.96 435.772 944.575 598.396Z" stroke="url(#paint4_linear_31_4055)" stroke-opacity="0.5" stroke-width="2.10293" stroke-miterlimit="10"/>
<path d="M926.854 596.042C839.068 723.039 745.508 760.971 666.664 759.521C591.833 758.144 531.12 721.098 503.114 697.609C414.339 623.151 346.76 462.596 426.895 371.468C498.37 290.187 534.529 349.875 629.15 305.732C632.031 304.387 634.814 302.922 637.54 301.429C710.357 261.793 731.106 177.478 789.921 137.581C806.446 126.371 825.569 118.182 848.93 115.459C926.628 106.403 996.426 153.941 1022.22 237.126C1048.97 323.385 1028.13 449.528 926.854 596.042Z" stroke="url(#paint5_linear_31_4055)" stroke-opacity="0.5" stroke-width="2.10293" stroke-miterlimit="10"/>
<path d="M909.132 593.687C834.31 703.143 753.836 737.527 685.266 737.278C621.529 737.048 569.045 706.662 543.171 685.963C463.476 622.211 402.353 482.264 466.806 396.696C523.259 321.747 556.821 362.949 638.161 322.639C640.71 321.375 643.174 320.003 645.599 318.619C710.024 282.168 734.561 212.233 788.854 180.468C804.35 171.401 821.772 164.913 842.377 163.061C914.872 156.541 975.673 199.636 997.082 273.234C1019.57 350.552 998.283 463.272 909.132 593.687Z" stroke="url(#paint6_linear_31_4055)" stroke-opacity="0.5" stroke-width="2.10293" stroke-miterlimit="10"/>
<path d="M891.411 591.333C829.526 683.227 762.169 714.056 703.868 715.036C651.228 715.922 606.99 692.208 583.228 674.319C512.675 621.202 453.896 499.385 506.715 421.923C551.797 355.809 579.082 375.939 647.172 339.544C649.388 338.359 651.533 337.082 653.659 335.808C709.693 302.541 738.077 247.051 787.788 223.353C802.27 216.449 817.983 211.684 835.824 210.661C903.137 206.798 954.898 245.34 971.944 309.342C990.158 377.728 968.41 476.997 891.411 591.333Z" stroke="url(#paint7_linear_31_4055)" stroke-opacity="0.5" stroke-width="2.10293" stroke-miterlimit="10"/>
<path d="M873.69 588.979C824.701 663.282 770.506 690.537 722.471 692.795C680.93 694.747 644.96 677.722 623.284 662.674C561.953 620.095 513.997 522.195 546.625 447.152C573.472 385.404 601.293 388.812 656.182 356.45C658.063 355.341 659.892 354.161 661.718 352.998C709.359 322.916 741.649 281.981 786.721 266.24C800.206 261.529 814.195 258.509 829.27 258.262C891.412 257.244 934.089 291.055 946.807 345.45C960.71 404.916 938.493 490.69 873.69 588.979Z" stroke="url(#paint8_linear_31_4055)" stroke-opacity="0.5" stroke-width="2.10293" stroke-miterlimit="10"/>
<path d="M855.968 586.624C819.809 643.291 778.842 666.919 741.072 670.553C710.63 673.482 682.965 663.178 663.341 651.029C611.328 618.829 570.484 542.428 586.535 472.38C599.12 417.455 623.405 401.517 665.193 373.356C666.736 372.317 668.251 371.24 669.777 370.187C709.026 343.289 745.249 317.084 785.653 309.125C798.152 306.664 810.402 305.399 822.717 305.862C879.671 308.006 913.226 336.782 921.669 381.557C931.2 432.118 908.486 504.323 855.968 586.624Z" stroke="url(#paint9_linear_31_4055)" stroke-opacity="0.5" stroke-width="2.10293" stroke-miterlimit="10"/>
<path d="M626.445 497.608C625.348 447.283 646.979 411.092 677.836 387.378C708.693 363.663 748.777 352.427 784.587 352.012C858.062 351.162 891.482 376.001 896.531 417.665C901.58 459.329 878.257 517.819 838.248 584.269C798.239 650.72 745.995 661.459 703.399 639.383C660.803 617.309 627.856 562.418 626.445 497.608Z" stroke="url(#paint10_linear_31_4055)" stroke-opacity="0.5" stroke-width="2.10293" stroke-miterlimit="10"/>
<defs>
<linearGradient id="paint0_linear_31_4055" x1="293.864" y1="106.658" x2="1047.81" y2="560.601" gradientUnits="userSpaceOnUse">
<stop stop-color="#1C89F4"/>
<stop offset="1" stop-color="#1C81F3"/>
</linearGradient>
<linearGradient id="paint1_linear_31_4055" x1="332.355" y1="139.642" x2="1029.11" y2="559.153" gradientUnits="userSpaceOnUse">
<stop stop-color="#1C89F4"/>
<stop offset="1" stop-color="#1C81F3"/>
</linearGradient>
<linearGradient id="paint2_linear_31_4055" x1="370.725" y1="172.605" x2="1010.39" y2="557.742" gradientUnits="userSpaceOnUse">
<stop stop-color="#1C89F4"/>
<stop offset="1" stop-color="#1C81F3"/>
</linearGradient>
<linearGradient id="paint3_linear_31_4055" x1="408.962" y1="205.511" x2="991.663" y2="556.348" gradientUnits="userSpaceOnUse">
<stop stop-color="#1C89F4"/>
<stop offset="1" stop-color="#1C81F3"/>
</linearGradient>
<linearGradient id="paint4_linear_31_4055" x1="447.039" y1="238.277" x2="973.042" y2="554.976" gradientUnits="userSpaceOnUse">
<stop stop-color="#1C89F4"/>
<stop offset="1" stop-color="#1C81F3"/>
</linearGradient>
<linearGradient id="paint5_linear_31_4055" x1="484.831" y1="270.93" x2="954.323" y2="553.605" gradientUnits="userSpaceOnUse">
<stop stop-color="#1C89F4"/>
<stop offset="1" stop-color="#1C81F3"/>
</linearGradient>
<linearGradient id="paint6_linear_31_4055" x1="522.192" y1="303.367" x2="935.583" y2="552.265" gradientUnits="userSpaceOnUse">
<stop stop-color="#1C89F4"/>
<stop offset="1" stop-color="#1C81F3"/>
</linearGradient>
<linearGradient id="paint7_linear_31_4055" x1="558.644" y1="335.327" x2="916.81" y2="550.974" gradientUnits="userSpaceOnUse">
<stop stop-color="#1C89F4"/>
<stop offset="1" stop-color="#1C81F3"/>
</linearGradient>
<linearGradient id="paint8_linear_31_4055" x1="593.242" y1="366.286" x2="897.983" y2="549.767" gradientUnits="userSpaceOnUse">
<stop stop-color="#1C89F4"/>
<stop offset="1" stop-color="#1C81F3"/>
</linearGradient>
<linearGradient id="paint9_linear_31_4055" x1="623.53" y1="394.845" x2="879.077" y2="548.706" gradientUnits="userSpaceOnUse">
<stop stop-color="#1C89F4"/>
<stop offset="1" stop-color="#1C81F3"/>
</linearGradient>
<linearGradient id="paint10_linear_31_4055" x1="647.328" y1="419.85" x2="860.108" y2="547.962" gradientUnits="userSpaceOnUse">
<stop stop-color="#1C89F4"/>
<stop offset="1" stop-color="#1C81F3"/>
</linearGradient>
</defs>
</svg>
