<svg width="54" height="54" viewBox="0 0 54 54" fill="none" xmlns="http://www.w3.org/2000/svg">
<path d="M26.8305 31.3496C26.1807 31.3496 25.5454 31.1568 25.005 30.7958C24.4647 30.4347 24.0435 29.9216 23.7948 29.3212C23.5461 28.7207 23.4811 28.0601 23.6078 27.4227C23.7346 26.7853 24.0476 26.1998 24.5071 25.7403C24.9666 25.2808 25.5521 24.9678 26.1895 24.841C26.8269 24.7142 27.4876 24.7793 28.088 25.028C28.6884 25.2767 29.2016 25.6979 29.5626 26.2382C29.9237 26.7786 30.1164 27.4138 30.1164 28.0637C30.1164 28.9352 29.7702 29.7709 29.154 30.3872C28.5378 31.0034 27.702 31.3496 26.8305 31.3496ZM45.1285 29.8093L29.9521 50.4074C29.8486 50.5453 29.7044 50.6472 29.5398 50.6986C29.3753 50.75 29.1987 50.7483 29.0351 50.6938C28.8716 50.6393 28.7293 50.5347 28.6285 50.3948C28.5277 50.2549 28.4735 50.0869 28.4735 49.9145V34.43C30.0222 34.0301 31.3719 33.0792 32.2696 31.7553C33.1673 30.4315 33.5514 28.8257 33.3498 27.239C33.1483 25.6522 32.3749 24.1935 31.1748 23.1361C29.9746 22.0787 28.43 21.4954 26.8305 21.4954C25.231 21.4954 23.6864 22.0787 22.4863 23.1361C21.2861 24.1935 20.5128 25.6522 20.3113 27.239C20.1097 28.8257 20.4938 30.4315 21.3915 31.7553C22.2892 33.0792 23.6389 34.0301 25.1876 34.43V49.9145C25.1876 50.0869 25.1334 50.2549 25.0326 50.3948C24.9318 50.5347 24.7895 50.6393 24.6259 50.6938C24.4624 50.7483 24.2858 50.75 24.1212 50.6986C23.9567 50.6472 23.8124 50.5453 23.709 50.4074L8.53257 29.8093C8.17506 29.3233 7.95737 28.7487 7.90307 28.1478C7.84877 27.5468 7.95993 26.9425 8.22453 26.4003L13.6872 15.3517V7.52728C13.6872 6.65583 14.0334 5.82006 14.6496 5.20385C15.2658 4.58764 16.1016 4.24146 16.973 4.24146H36.688C37.5595 4.24146 38.3952 4.58764 39.0115 5.20385C39.6277 5.82006 39.9739 6.65583 39.9739 7.52728V15.3517L45.4366 26.4003C45.7011 26.9425 45.8123 27.5468 45.758 28.1478C45.7037 28.7487 45.486 29.3233 45.1285 29.8093ZM36.688 7.52728H16.973V14.0989H36.688V7.52728Z" fill="#007AFF"/>
</svg>
