<svg width="53" height="54" viewBox="0 0 53 54" fill="none" xmlns="http://www.w3.org/2000/svg">
<path d="M14.1263 7.49023C12.1655 7.49023 10.285 8.26915 8.89855 9.65563C7.51207 11.0421 6.73315 12.9226 6.73315 14.8834V32.9554C6.73315 34.9162 7.51207 36.7967 8.89855 38.1831C10.285 39.5696 12.1655 40.3485 14.1263 40.3485H35.4842C37.4449 40.3485 39.3254 39.5696 40.7119 38.1831C42.0984 36.7967 42.8773 34.9162 42.8773 32.9554V14.8834C42.8773 12.9226 42.0984 11.0421 40.7119 9.65563C39.3254 8.26915 37.4449 7.49023 35.4842 7.49023H14.1263ZM19.8765 30.4779V17.3609C19.8762 17.0632 19.9569 16.771 20.1098 16.5156C20.2627 16.2602 20.4822 16.0511 20.7447 15.9107C21.0072 15.7703 21.303 15.7039 21.6003 15.7186C21.8976 15.7333 22.1854 15.8284 22.4328 15.994L32.2805 22.5525C32.5062 22.7024 32.6913 22.9058 32.8194 23.1446C32.9474 23.3833 33.0144 23.6501 33.0144 23.921C33.0144 24.192 32.9474 24.4587 32.8194 24.6975C32.6913 24.9363 32.5062 25.1397 32.2805 25.2896L22.4296 31.8481C22.1819 32.0129 21.8942 32.1074 21.5971 32.1214C21.2999 32.1355 21.0046 32.0686 20.7425 31.928C20.4804 31.7873 20.2614 31.5781 20.1089 31.3227C19.9564 31.0674 19.876 30.7754 19.8765 30.4779ZM19.8765 46.9202C18.601 46.9212 17.3429 46.6248 16.2021 46.0544C15.0613 45.484 14.0693 44.6553 13.3048 43.6344H37.1271C39.5236 43.6344 41.8219 42.6824 43.5165 40.9878C45.2111 39.2932 46.1631 36.9948 46.1631 34.5983V14.0619C48.1576 15.5602 49.4489 17.9457 49.4489 20.6336V34.5983C49.4489 37.8663 48.1508 41.0004 45.84 43.3112C43.5292 45.622 40.395 46.9202 37.1271 46.9202H19.8765Z" fill="#007AFF"/>
</svg>
