<svg width="53" height="54" viewBox="0 0 53 54" fill="none" xmlns="http://www.w3.org/2000/svg">
<mask id="mask0_31_4117" style="mask-type:alpha" maskUnits="userSpaceOnUse" x="2" y="7" width="49" height="42">
<path d="M25.3527 44.7669H7.82831C6.95685 44.7669 6.12109 44.4207 5.50488 43.8045C4.88867 43.1883 4.54248 42.3525 4.54248 41.481V13.0038C4.54248 12.1324 4.88867 11.2966 5.50488 10.6804C6.12109 10.0642 6.95685 9.71802 7.82831 9.71802H45.0677C45.9392 9.71802 46.7749 10.0642 47.3911 10.6804C48.0074 11.2966 48.3535 12.1324 48.3535 13.0038V29.3038" stroke="white" stroke-width="4.38111" stroke-linecap="round" stroke-linejoin="round"/>
<path d="M4.54248 13.0038C4.54248 12.1324 4.88867 11.2966 5.50488 10.6804C6.12109 10.0642 6.95685 9.71802 7.82831 9.71802H45.0677C45.9392 9.71802 46.7749 10.0642 47.3911 10.6804C48.0074 11.2966 48.3535 12.1324 48.3535 13.0038V22.8613H4.54248V13.0038Z" fill="white" stroke="white" stroke-width="4.38111"/>
<path d="M43.9725 37.0999L48.3536 41.481L43.9725 45.8621M37.4009 37.0999L33.0198 41.481L37.4009 45.8621V37.0999Z" stroke="white" stroke-width="4.38111" stroke-linecap="round" stroke-linejoin="round"/>
<path d="M8.92358 16.2897C8.92358 15.0799 9.90432 14.0991 11.1141 14.0991C12.3239 14.0991 13.3047 15.0799 13.3047 16.2897C13.3047 17.4995 12.3239 18.4802 11.1141 18.4802C9.90432 18.4802 8.92358 17.4995 8.92358 16.2897Z" fill="black"/>
<path d="M15.4954 16.2897C15.4954 15.0799 16.4761 14.0991 17.6859 14.0991C18.8957 14.0991 19.8765 15.0799 19.8765 16.2897C19.8765 17.4995 18.8957 18.4802 17.6859 18.4802C16.4761 18.4802 15.4954 17.4995 15.4954 16.2897Z" fill="black"/>
</mask>
<g mask="url(#mask0_31_4117)">
<path d="M0.161377 0.955688H52.7347V53.529H0.161377V0.955688Z" fill="#007AFF"/>
</g>
</svg>
